<?xml version="1.0" encoding="UTF-8" standalone="no"?>
<svg
   version="1.1"
   id="Layer_1"
   x="0px"
   y="0px"
   width="2067"
   viewBox="0 0 2067 1903"
   enable-background="new 0 0 2732 2048"
   xml:space="preserve"
   sodipodi:docname="file(18).svg"
   height="1903"
   xmlns:inkscape="http://www.inkscape.org/namespaces/inkscape"
   xmlns:sodipodi="http://sodipodi.sourceforge.net/DTD/sodipodi-0.dtd"
   xmlns="http://www.w3.org/2000/svg"
   xmlns:svg="http://www.w3.org/2000/svg"><defs
   id="defs65" /><sodipodi:namedview
   id="namedview65"
   pagecolor="#505050"
   bordercolor="#ffffff"
   borderopacity="1"
   inkscape:showpageshadow="0"
   inkscape:pageopacity="0"
   inkscape:pagecheckerboard="1"
   inkscape:deskcolor="#d1d1d1" />




<path
   fill="none"
   opacity="1"
   stroke="#000000"
   stroke-linecap="round"
   stroke-linejoin="round"
   stroke-width="3"
   d="m 1318.5,493.5 c -0.6357,35.07794 -3.7074,70.0202 -5.6057,105.02136 -1.4094,25.99018 -3.2715,51.98108 -4.8036,77.95447 -2.2023,37.33118 -6.5972,74.59271 -5.3626,112.01666 1.0037,30.41791 3.5654,60.75281 7.3704,91.05793 4.2559,33.89483 10.0662,67.47656 16.6665,100.89718 5.9502,30.1282 12.2705,60.2124 19.4544,90.1198 6.65,27.6837 10.5185,56.0235 16.4336,83.9001 3.8558,18.172 8.436,36.2675 14.0261,53.9759 7.8532,24.8774 14.0283,50.0283 15.7102,76.0638 1.3045,20.1948 -6.215,34.2603 -25.6159,44.5105 -31.6836,16.7395 -63.8165,31.4656 -98.2165,41.6738 -29.5985,8.7835 -59.4125,15.7206 -90.0271,20.0203 -42.1935,5.9258 -84.5455,8.8849 -127.0184,7.4529 -25.3411,-0.8545 -50.7209,-2.638 -76.0594,-5.1875 -27.448,-2.7617 -54.6822,-6.7405 -81.9284,-10.6419 -37.6791,-5.3954 -75.7633,-9.249 -111.9969,-21.9118 -35.54,-12.4206 -71.3327,-24.2283 -105.9133,-39.1856 -5.1483,-2.2269 -11.9673,-1.7401 -15.2866,-8.6548 -5.445,-11.3425 -5.5122,-23.2639 -4.658,-35.0709 2.0896,-28.8804 10.7093,-56.4713 19.0498,-83.9458 6.8953,-22.7146 10.8225,-45.9805 15.7671,-69.0695 5.0652,-23.6527 10.1948,-47.2939 14.9672,-71.0063 5.6367,-28.0063 11.9958,-55.8578 17.2096,-83.9604 3.8302,-20.6445 7.8678,-41.23827 10.8543,-62.02776 1.9113,-13.30444 3.4111,-26.67682 5.2531,-39.96503 5.3916,-38.89239 6.9365,-77.94757 5.4413,-117.02636 -1.0211,-26.68463 -2.2299,-53.43659 -5.5137,-80.03546 -1.2621,-10.22339 -1.4278,-20.69538 -1.8337,-30.98993 -1.0266,-26.02875 -3.6134,-51.94586 -4.7425,-77.96924 C 731.1382,538.85724 729.8699,516.16449 728.5,493.5"
   id="path5" />
<path
   fill="none"
   opacity="1"
   stroke="#000000"
   stroke-linecap="round"
   stroke-linejoin="round"
   stroke-width="3"
   d="m 1189.5,837.5 c -2.7792,5.66669 -0.077,11.37335 0.1594,16.99329 1.225,29.07605 2.6942,58.08874 6.4414,87.05835 3.1946,24.69656 6.3192,49.41116 10.5735,73.91806 6.3275,36.4501 13.782,72.7055 20.8394,109.0276 5.7607,29.6489 11.52,59.2971 17.1621,88.9693 5.8042,30.5236 10.675,61.2506 13.259,92.0808 1.8532,22.1104 5.1898,44.5601 1.5652,66.9526"
   id="path6" />
<path
   fill="none"
   opacity="1"
   stroke="#000000"
   stroke-linecap="round"
   stroke-linejoin="round"
   stroke-width="3"
   d="m 868.5,825.5 c 1.2587,25.46973 -0.8881,50.87183 -4.3336,75.95416 -4.2931,31.25232 -10.4303,62.22914 -17.2371,93.14034 -14.9724,67.9927 -35.7384,134.4175 -52.125,201.9794 -8.0495,33.1883 -15.3812,66.6428 -18.6225,100.8959 -1.8326,19.3661 -2.6248,38.6481 -2.6818,58.0302"
   id="path7" />


























































</svg>
