<?xml version="1.0" encoding="UTF-8" standalone="no"?>
<svg
   version="1.1"
   id="Layer_1"
   x="0px"
   y="0px"
   width="2065"
   viewBox="0 0 2065 1903"
   enable-background="new 0 0 2732 2048"
   xml:space="preserve"
   sodipodi:docname="file(14).svg"
   height="1903"
   xmlns:inkscape="http://www.inkscape.org/namespaces/inkscape"
   xmlns:sodipodi="http://sodipodi.sourceforge.net/DTD/sodipodi-0.dtd"
   xmlns="http://www.w3.org/2000/svg"
   xmlns:svg="http://www.w3.org/2000/svg"><defs
   id="defs70" /><sodipodi:namedview
   id="namedview70"
   pagecolor="#505050"
   bordercolor="#ffffff"
   borderopacity="1"
   inkscape:showpageshadow="0"
   inkscape:pageopacity="0"
   inkscape:pagecheckerboard="1"
   inkscape:deskcolor="#d1d1d1" />
<path
   fill="none"
   opacity="1"
   stroke="#000000"
   stroke-linecap="round"
   stroke-linejoin="round"
   stroke-width="3"
   d="m 727.5,493.5 c 1.4211,2.17792 0.9735,4.63464 0.9869,7.00006 0.2063,36.10059 3.6148,72.02002 5.6927,108.01843 1.4613,25.31818 2.9105,50.68323 4.729,75.95209 2.2549,31.33405 4.1311,62.64142 4.5249,94.03027 0.3817,30.42511 -1.5487,60.83838 -5.2906,90.95478 -2.9934,24.09277 -7.2511,48.10968 -11.2509,72.10968 -8.4468,50.68309 -20.2901,100.62509 -30.5899,150.89419 -6.9142,33.7445 -11.9416,67.9762 -21.9917,100.9828 -8.0311,26.3765 -15.5566,52.8637 -19.4775,80.1057 -1.6944,11.7729 -1.751,24.2367 2.6669,35.9521 1.6431,4.3578 3.1894,7.1129 8.7987,9.4778 35.4511,14.9454 71.6733,27.5548 108.1374,39.7145 28.7695,9.5937 57.8761,16.5453 88.0381,20.0321 25.1267,2.9047 49.9257,8.7013 75.0638,11.426 14.9374,1.619 30.0125,3.0593 44.9154,4.7595 41.987,4.7901 84.0326,3.9267 126.0419,3.2774 24.7551,-0.3825 49.4093,-3.9169 74.0564,-7.3133 38.8091,-5.3477 76.2217,-15.1965 112.9618,-28.3367 28.125,-10.0589 54.4158,-23.6935 80.1296,-38.7939 9.5663,-5.6179 13.8769,-13.7428 14.5457,-23.2654 1.0521,-14.9764 0.7241,-30.0388 -2.552,-45.008 -6.8752,-31.4146 -17.8408,-61.7616 -24.7039,-93.0649 -5.8856,-26.8456 -10.4991,-54.0191 -16.3767,-80.9174 -7.5639,-34.6163 -15.4373,-69.1903 -21.8148,-104.032 -4.5544,-24.8826 -8.4011,-49.9508 -12.6481,-74.88653 -9.4432,-55.44488 -11.3498,-111.22058 -9.1296,-167.05084 1.3257,-33.33893 3.235,-66.80383 7.3746,-100.03857 1.2744,-10.23157 1.3235,-20.72602 1.6602,-30.99628 0.5143,-15.69189 1.7313,-31.38794 2.9525,-46.94818 1.6764,-21.35864 0.3915,-42.75635 2.5492,-64.0354"
   id="path1" />




<path
   fill="none"
   opacity="1"
   stroke="#000000"
   stroke-linecap="round"
   stroke-linejoin="round"
   stroke-width="3"
   d="m 748.5,485.5 c 8,25 16.0424,49.98651 23.99,75.00317 11.9568,37.63642 22.9642,75.57862 31.6345,114.08136 2.8595,12.69782 5.9788,25.66883 6.3755,38.91547"
   id="path6" />
<path
   fill="none"
   opacity="1"
   stroke="#000000"
   stroke-linecap="round"
   stroke-linejoin="round"
   stroke-width="3"
   d="m 1302.5,486.5 c -11.9341,28.53381 -21.4148,57.97125 -31.9434,87.02051 -13.145,36.26806 -24.4077,73.08545 -32.2624,110.93676 -2.0059,9.66633 -4.735,19.1814 -5.7942,29.04273"
   id="path7" />

<path
   fill="none"
   opacity="1"
   stroke="#000000"
   stroke-linecap="round"
   stroke-linejoin="round"
   stroke-width="3"
   d="m 1266.5,469.5 c -10.7249,31.42993 -22.626,62.43756 -33.1475,93.95074 -11.2819,33.79169 -20.9837,68.14411 -34.7766,101.08106 -0.5937,1.41803 -0.076,3.30151 -0.076,4.9682"
   id="path9" />
<path
   fill="none"
   opacity="1"
   stroke="#000000"
   stroke-linecap="round"
   stroke-linejoin="round"
   stroke-width="3"
   d="m 772.5,470.5 c 9.0721,17.98358 15.1964,37.17261 21.7881,56.07391 C 810.6003,573.34875 825.8333,620.5 841.5,667.5"
   id="path10" />





<path
   fill="none"
   opacity="1"
   stroke="#000000"
   stroke-linecap="round"
   stroke-linejoin="round"
   stroke-width="3"
   d="m 803.5,461.5 c 18.0709,33.11652 28.4224,69.09082 39.1045,104.96887 2.2179,7.44916 3.9683,15.15619 7.8955,22.03113"
   id="path16" />
<path
   fill="none"
   opacity="1"
   stroke="#000000"
   stroke-linecap="round"
   stroke-linejoin="round"
   stroke-width="3"
   d="m 1248.5,464.5 c -27.3607,38.85583 -42.8491,83.32062 -60,127"
   id="path17" />





















































</svg>
