<?xml version="1.0" encoding="UTF-8" standalone="no"?>
<svg
   version="1.1"
   id="Layer_1"
   x="0px"
   y="0px"
   width="2095.5"
   viewBox="0 0 2095.5 1931.5"
   enable-background="new 0 0 2732 2048"
   xml:space="preserve"
   sodipodi:docname="file(19).svg"
   height="1931.5"
   xmlns:inkscape="http://www.inkscape.org/namespaces/inkscape"
   xmlns:sodipodi="http://sodipodi.sourceforge.net/DTD/sodipodi-0.dtd"
   xmlns="http://www.w3.org/2000/svg"
   xmlns:svg="http://www.w3.org/2000/svg"><defs
   id="defs64" /><sodipodi:namedview
   id="namedview64"
   pagecolor="#505050"
   bordercolor="#ffffff"
   borderopacity="1"
   inkscape:showpageshadow="0"
   inkscape:pageopacity="0"
   inkscape:pagecheckerboard="1"
   inkscape:deskcolor="#d1d1d1" />




<path
   fill="none"
   opacity="1"
   stroke="#000000"
   stroke-linecap="round"
   stroke-linejoin="round"
   stroke-width="3"
   d="m 1338,498 c 11.6702,9.75738 25.0997,16.98193 36.2289,27.76379 21.2363,20.57379 39.3282,43.47846 56.9813,67.07898 32.6528,43.65369 59.5505,91.34815 94.6187,133.30024 8.0428,9.62164 15.6499,19.6217 24.6754,28.30682 -8.5625,20.98395 -22.7147,37.09808 -38.6427,51.39599 -24.8502,22.30726 -51.3562,42.58271 -79.8314,60.20282 -17.5418,10.85474 -34.9493,21.89246 -54.0225,29.96955 -3.3876,1.43463 -6.6547,3.87054 -10.011,-0.0153 C 1349.3876,874.45746 1330.6859,852.9773 1320,826"
   id="path5" />
<path
   fill="none"
   opacity="1"
   stroke="#000000"
   stroke-linecap="round"
   stroke-linejoin="round"
   stroke-width="3"
   d="m 733,497 c -39.44714,22.97607 -66.65521,58.04645 -93.01544,93.98865 -28.17291,38.41382 -52.98303,79.15686 -81.78131,117.16534 -11.62934,15.34876 -23.99433,30.01312 -36.54425,44.72693 4.74914,15.95807 15.66455,27.68939 26.49627,38.96997 26.6557,27.76013 57.73468,50.15161 89.83698,71.16095 19.67566,12.87665 39.82324,24.83991 62.10156,33.64539 C 720.8215,874.70691 740.8409,852.8457 751,824"
   id="path6" />


























































</svg>
