<?xml version="1.0" encoding="UTF-8" standalone="no"?>
<svg
   version="1.1"
   id="Layer_1"
   x="0px"
   y="0px"
   width="2095"
   viewBox="0 0 2095 1931.5"
   enable-background="new 0 0 2732 2048"
   xml:space="preserve"
   sodipodi:docname="file.svg"
   height="1931.5"
   inkscape:export-filename="Breit/Ärmel/standard_lang.svg"
   inkscape:export-xdpi="96"
   inkscape:export-ydpi="96"
   xmlns:inkscape="http://www.inkscape.org/namespaces/inkscape"
   xmlns:sodipodi="http://sodipodi.sourceforge.net/DTD/sodipodi-0.dtd"
   xmlns="http://www.w3.org/2000/svg"
   xmlns:svg="http://www.w3.org/2000/svg"><defs
   id="defs64" /><sodipodi:namedview
   id="namedview64"
   pagecolor="#505050"
   bordercolor="#ffffff"
   borderopacity="1"
   inkscape:showpageshadow="0"
   inkscape:pageopacity="0"
   inkscape:pagecheckerboard="1"
   inkscape:deskcolor="#d1d1d1" />




<path
   fill="none"
   opacity="1"
   stroke="#000000"
   stroke-linecap="round"
   stroke-linejoin="round"
   stroke-width="3"
   d="m 1341.5,504 c 14.5707,10.79236 24.2446,25.93622 34.8822,40.08856 19.4768,25.91205 35.0938,54.16814 50.4094,82.75519 26.0691,48.65923 47.0839,99.33385 65.7615,151.13707 16.6534,46.18891 33.1622,92.45343 53.9606,137.01276 18.2877,39.18061 37.0123,78.15078 55.869,117.06332 21.8292,45.0466 42.043,90.8352 59.0771,137.9576 0.3197,0.8844 0.04,1.9855 0.04,2.9853 -48.5048,37.3065 -98.8709,71.3453 -158.7167,90.4875 -9.922,-15.2125 -18.9515,-30.9652 -26.1234,-47.5564 -12.5728,-29.0858 -23.8236,-58.7407 -36.2411,-87.8962 -17.307,-40.6361 -36.4308,-80.4659 -54.0873,-120.9612 -23.3188,-53.4823 -43.9701,-108.01717 -65.7395,-162.11049 -0.8346,-2.07422 0.3292,-4.78509 -1.0919,-6.96301"
   id="path5" />
<path
   fill="none"
   opacity="1"
   stroke="#000000"
   stroke-linecap="round"
   stroke-linejoin="round"
   stroke-width="3"
   d="m 735.5,505 c -19.5935,15.76207 -32.88574,36.73473 -46.9743,57.01782 -23.60529,33.98401 -42.45465,70.69483 -59.844,108.0667 -19.83179,42.62122 -37.20984,86.28926 -52.30481,130.87378 -11.61658,34.31105 -25.03424,67.95471 -39.79254,101.07929 -22.8258,51.2319 -48.13733,101.27251 -71.94971,152.02561 -18.09417,38.5655 -35.72802,77.3881 -48.85516,119.168 45.95569,37.7299 95.94257,70.3418 154.56946,89.9835 6.11377,-8.3272 8.22308,-18.7987 11.90198,-28.311 12.19659,-31.536 27.94134,-61.3803 42.29577,-91.8817 20.21112,-42.9462 39.72516,-86.1702 58.38306,-129.8384 C 697.72259,978.56137 711.9877,943.72442 726.2772,908.90857 734.917,887.85803 741.9539,866.12854 750.5,845"
   id="path6" />


























































</svg>
