<?xml version="1.0" encoding="UTF-8" standalone="no"?>
<svg
   version="1.1"
   id="Layer_1"
   x="0px"
   y="0px"
   width="2049"
   viewBox="0 0 2049 1888"
   enable-background="new 0 0 2732 2048"
   xml:space="preserve"
   sodipodi:docname="IMG_0905.svg"
   height="1888"
   xmlns:inkscape="http://www.inkscape.org/namespaces/inkscape"
   xmlns:sodipodi="http://sodipodi.sourceforge.net/DTD/sodipodi-0.dtd"
   xmlns="http://www.w3.org/2000/svg"
   xmlns:svg="http://www.w3.org/2000/svg"><defs
   id="defs1436" /><sodipodi:namedview
   id="namedview1434"
   pagecolor="#ffffff"
   bordercolor="#000000"
   borderopacity="0.25"
   inkscape:showpageshadow="2"
   inkscape:pageopacity="0.0"
   inkscape:pagecheckerboard="0"
   inkscape:deskcolor="#d1d1d1"
   showgrid="false" />




<path
   fill="none"
   opacity="1"
   stroke="#000000"
   stroke-linecap="round"
   stroke-linejoin="round"
   stroke-width="3"
   d="m 721.5,490 c -38.3143,5.27075 -63.5189,28.7912 -82.95538,60.02777 -17.57282,28.2414 -29.39808,58.94971 -38.06781,90.96594 -6.61841,24.44117 -11.74555,49.30677 -20.95978,73.01294 -17.40033,44.76734 -41.32019,85.88959 -68.95947,125.034 -24.73969,35.03766 -51.94367,68.22064 -76.97181,103.02105 -20.76037,28.8663 -41.3562,57.8664 -51.33752,92.8665 -2.19379,7.6925 -1.83374,13.5139 0.82501,21.219 8.56775,24.8297 17.31555,49.4483 29.29291,72.9212 7.78039,15.2475 16.29199,30.0138 26.27496,43.8297 6.99152,9.6756 17.36145,15.654 27.85889,21.1019"
   id="path1289" />
<path
   fill="none"
   opacity="1"
   stroke="#000000"
   stroke-linecap="round"
   stroke-linejoin="round"
   stroke-width="3"
   d="m 1568.5,1194 c 24.1656,-9.7959 36.0675,-31.0503 47.8906,-52.0615 11.5045,-20.4455 21.2017,-41.9079 28.7005,-64.0768 3.1899,-9.4308 7.0954,-18.5718 10.0598,-27.9718 2.8027,-8.8873 -2.6775,-17.5527 -5.7841,-25.84 -10.3966,-27.7339 -26.805,-52.0824 -43.8323,-76.0744 -31.7609,-44.75309 -67.342,-86.65909 -97.2425,-132.84079 -26.6271,-41.12562 -49.0253,-84.06946 -62.63,-131.18146 -7.6978,-26.65662 -13.2959,-53.88654 -23.0642,-79.98987 -11.3843,-30.42133 -25.8534,-59.21533 -48.3743,-82.69824 C 1358.5287,504.89978 1339.1638,493.13892 1315.5,491"
   id="path1291" />
<path
   fill="none"
   opacity="1"
   stroke="#000000"
   stroke-linecap="round"
   stroke-linejoin="round"
   stroke-width="3"
   d="m 1274.5,868 c 0,23 -0.4554,46.01099 0.1003,68.9976 0.9842,40.7077 2.255,81.3861 5.5768,122.0288 2.3035,28.1851 5.4192,56.2114 10.6002,83.9217 3.1709,16.9591 7.9197,33.8039 16.7179,49.0546 4.7305,8.1998 10.4335,14.9972 21.0048,14.9973"
   id="path1293" />
<path
   fill="none"
   opacity="1"
   stroke="#000000"
   stroke-linecap="round"
   stroke-linejoin="round"
   stroke-width="3"
   d="m 760.5,868 c 0,29 0.062,58.0002 -0.02,87 -0.061,21.6824 -1.572,43.3353 -2.373,64.9855 -1.0872,29.3917 -3.8134,58.8403 -7.9298,87.9688 -3.9639,28.0478 -8.0585,56.3969 -21.6731,82.0477 -4.4193,8.3264 -9.8589,14.2915 -19.8952,17.354 -23.1546,7.0653 -43.9082,20.286 -67.06533,27.7777 -19.96111,6.4577 -39.08013,5.0175 -58.04357,-3.1337"
   id="path1295" />
<path
   fill="none"
   opacity="1"
   stroke="#000000"
   stroke-linecap="round"
   stroke-linejoin="round"
   stroke-width="3"
   d="m 713.5,1205 c -13.7783,-17.9083 -33.9427,-25.4661 -54.02,-32.9463 -40.36525,-15.0386 -82.62502,-23.4637 -123.95937,-35.1269 -40.49835,-11.4274 -81.12909,-22.3542 -117.22845,-45.6042 C 407.66248,1084.4766 400.51776,1073.9631 389.5,1068"
   id="path1297" />
<path
   fill="none"
   opacity="1"
   stroke="#000000"
   stroke-linecap="round"
   stroke-linejoin="round"
   stroke-width="3"
   d="m 1645.5,1068 c -12.8539,9.0026 -23.7946,20.2773 -36.8032,29.2842 -32.7489,22.6744 -68.7167,38.7497 -105.2937,53.4752 -26.4722,10.6572 -53.4793,20.0321 -80.8166,28.5193 -27.535,8.5484 -55.4195,15.7229 -83.0988,23.6785 -2.9396,0.8447 -6.6049,-1.401 -8.9877,2.0428"
   id="path1299" />





<path
   fill="none"
   opacity="1"
   stroke="#000000"
   stroke-linecap="round"
   stroke-linejoin="round"
   stroke-width="3"
   d="m 1566.5,1181 c -2.5623,2.1927 -4.6801,4.722 -1.9283,7.9387 1.8399,2.1508 3.9803,4.1001 3.8689,7.0591 -0.1947,5.1721 6.5593,8.8483 3.8859,13.9106 -4.103,7.7701 -11.4941,12.7391 -18.8877,16.9852 -19.8613,11.4064 -41.3864,18.0184 -63.8527,22.5347 -7.0144,1.4102 -14.1917,0.5005 -21.2052,3.2698 -7.414,2.9273 -10.5777,-0.2759 -11.917,-8.6924 -0.932,-5.8573 -4.5213,-10.979 -4.9639,-17.0057"
   id="path1311" />
<path
   fill="none"
   opacity="1"
   stroke="#000000"
   stroke-linecap="round"
   stroke-linejoin="round"
   stroke-width="3"
   d="m 470.5,1189 c -5.66669,5.0702 -3.67676,13.7672 -9.36432,18.803 15.13043,20.1246 36.97083,28.3895 59.41608,35.0217 16.2392,4.7987 32.91656,8.0115 49.92596,9.4407 3.9914,0.3354 7.89875,0.4581 7.71344,-3.25 -0.3938,-7.8819 4.84644,-14.3419 4.30884,-22.0154"
   id="path1313" />
<path
   fill="none"
   opacity="1"
   stroke="#000000"
   stroke-linecap="round"
   stroke-linejoin="round"
   stroke-width="3"
   d="m 1330.5,1209 c 16.6666,7.3334 33.5013,14.3112 49.9597,22.0853 23.3866,11.0467 47.047,9.6459 71.0403,2.9147"
   id="path1315" />
<path
   fill="none"
   opacity="1"
   stroke="#000000"
   stroke-linecap="round"
   stroke-linejoin="round"
   stroke-width="3"
   d="m 1562.5,1186 c -19.4801,18.0415 -43.4274,25.5884 -69.0249,28.8018 -4.0105,0.5035 -7.2405,2.4298 -10.9165,3.4166 -9.7387,2.6141 -19.4279,-0.5939 -29.0586,0.7816"
   id="path1317" />


<path
   fill="none"
   opacity="1"
   stroke="#000000"
   stroke-linecap="round"
   stroke-linejoin="round"
   stroke-width="3"
   d="m 444.5,1160 c 4.1958,9.1376 9.57605,15.8829 19.69934,20.6398 10.15131,4.7702 19.31989,12.5484 29.34314,18.286 17.27564,9.8887 36.45148,13.2621 55.96381,15.004 3.78509,0.3379 7.40673,0.6245 10.49371,3.0702"
   id="path1323" />






<path
   fill="none"
   opacity="1"
   stroke="#000000"
   stroke-linecap="round"
   stroke-linejoin="round"
   stroke-width="3"
   d="m 627.5,1220 c -18.96741,-5.3651 -38.72846,-4.1425 -58.01044,-6.9276 -2.72522,-0.3938 -5.82238,-0.737 -7.98956,1.9276"
   id="path1337" />






















<path
   fill="none"
   opacity="1"
   stroke="#000000"
   stroke-linecap="round"
   stroke-linejoin="round"
   stroke-width="3"
   d="m 562.5,1219 c 11.4328,5.2505 23.8504,5.4359 36,7"
   id="path1383" />





<path
   fill="none"
   opacity="1"
   stroke="#000000"
   stroke-linecap="round"
   stroke-linejoin="round"
   stroke-width="3"
   d="m 1468.5,1223 c -11.4779,3.2024 -23.1538,4.0947 -35,3"
   id="path1395" />


















</svg>
