<svg width="500" height="500" xmlns="http://www.w3.org/2000/svg"><polyline points="150.3655078166982,61.42857142857142 150.3655078166982,63.57142857142856 150.3655078166982,65.71428571428571 150.3655078166982,67.85714285714285 150.3655078166982,70 150.3655078166982,72.14285714285714 150.3655078166982,74.28571428571429 150.3655078166982,76.42857142857143 150.3655078166982,78.57142857142857 150.3655078166982,80.71428571428571 150.3655078166982,82.85714285714286 150.3655078166982,85 150.3655078166982,87.14285714285714 150.3655078166982,89.28571428571428 150.3655078166982,91.42857142857143 150.3655078166982,93.57142857142856 150.3655078166982,95.71428571428571 150.3655078166982,97.85714285714285 150.3655078166982,99.99999999999999 150.3655078166982,102.14285714285715 150.3655078166982,104.28571428571429 150.3655078166982,106.42857142857143 150.3655078166982,108.57142857142857 150.3655078166982,110.71428571428571 150.3655078166982,112.85714285714286 150.3655078166982,114.99999999999999 150.3655078166982,117.14285714285714 150.3655078166982,119.28571428571429 150.3655078166982,121.42857142857142 150.3655078166982,123.57142857142856 150.3655078166982,125.7142857142857 150.3655078166982,127.85714285714286 150.3655078166982,130 150.3655078166982,132.14285714285714 150.3655078166982,134.28571428571428 150.3655078166982,136.42857142857142 150.3655078166982,138.57142857142858 150.3655078166982,140.71428571428572 150.3655078166982,142.85714285714286 150.3655078166982,145 150.3655078166982,147.14285714285717 150.3655078166982,149.28571428571428 150.3655078166982,151.42857142857142 150.3655078166982,153.57142857142856 150.3655078166982,155.71428571428572 150.3655078166982,157.85714285714283 150.3655078166982,160 150.3655078166982,162.1428571428571 150.3655078166982,164.28571428571428 150.3655078166982,166.42857142857144 150.3655078166982,168.57142857142856 150.3655078166982,170.71428571428572 150.3655078166982,172.85714285714286 150.3655078166982,175 150.3655078166982,177.14285714285714 150.3655078166982,179.2857142857143 150.3655078166982,181.42857142857142 150.3655078166982,183.57142857142856 150.3655078166982,185.7142857142857 150.3655078166982,187.85714285714286 150.3655078166982,189.99999999999997 150.3655078166982,192.14285714285714 150.3655078166982,194.2857142857143 150.3655078166982,196.42857142857142 150.3655078166982,198.57142857142858 150.3655078166982,200.71428571428572 150.3655078166982,202.85714285714286 150.3655078166982,205 150.3655078166982,207.14285714285717 150.3655078166982,209.28571428571428 150.3655078166982,211.42857142857142 150.3655078166982,213.57142857142858 150.3655078166982,215.7142857142857 150.3655078166982,217.85714285714286 150.3655078166982,220 150.3655078166982,222.14285714285714 150.3655078166982,224.28571428571428 150.3655078166982,226.42857142857144 150.3655078166982,228.57142857142856 150.3655078166982,230.71428571428572 150.3655078166982,232.8571428571429 150.3655078166982,235 150.3655078166982,237.1428571428571 150.3655078166982,239.28571428571428 150.3655078166982,241.4285714285714 150.3655078166982,243.57142857142856 150.3655078166982,245.71428571428572 150.3655078166982,247.85714285714283 150.3655078166982,250 150.3655078166982,252.14285714285714 150.3655078166982,254.28571428571428 150.3655078166982,256.42857142857144 150.3655078166982,258.57142857142856 150.3655078166982,260.71428571428567 150.3655078166982,262.85714285714283 150.3655078166982,265 150.3655078166982,267.14285714285717 150.3655078166982,269.2857142857143 150.3655078166982,271.42857142857144 150.3655078166982,273.57142857142856 150.3655078166982,275.7142857142857 150.3655078166982,277.85714285714283" style="fill:none;stroke:black;stroke-width:1" /><polyline points="150.3655078166982,277.85714285714283 150.3655078166982,277.85714285714283 150.3655078166982,280 150.3655078166982,282.1428571428571 150.3655078166982,284.2857142857143 150.3655078166982,286.42857142857144 150.3655078166982,288.57142857142856 150.3655078166982,290.71428571428567 150.3655078166982,292.85714285714283 150.3655078166982,295 150.3655078166982,297.1428571428571 150.3655078166982,299.2857142857143 150.3655078166982,301.42857142857144 150.3655078166982,303.57142857142856 150.3655078166982,305.71428571428567 150.3655078166982,307.85714285714283 150.3655078166982,309.99999999999994 150.3655078166982,312.1428571428571 150.3655078166982,314.2857142857142 150.3655078166982,316.4285714285714 150.3655078166982,318.57142857142856 150.3655078166982,320.7142857142857 150.3655078166982,322.8571428571428 150.3655078166982,324.99999999999994 150.3655078166982,327.1428571428571 150.3655078166982,329.2857142857143 150.3655078166982,331.42857142857144 150.3655078166982,333.57142857142856 150.3655078166982,335.7142857142857 150.3655078166982,337.85714285714283 150.3655078166982,340 150.3655078166982,342.14285714285717 150.3655078166982,344.2857142857143 150.3655078166982,346.4285714285714 150.3655078166982,348.57142857142856 150.3655078166982,350.7142857142857 150.3655078166982,352.85714285714283 150.3655078166982,355 150.3655078166982,357.1428571428571 150.3655078166982,359.2857142857143 150.3655078166982,361.4285714285714 150.3655078166982,363.5714285714285 150.3655078166982,365.71428571428567 150.3655078166982,367.85714285714283 150.3655078166982,369.99999999999994 150.3655078166982,372.14285714285705 150.3655078166982,374.2857142857142 150.3655078166982,376.4285714285714 150.3655078166982,378.57142857142856 150.3655078166982,380.71428571428567 150.3655078166982,382.85714285714283 150.3655078166982,385 150.3655078166982,387.1428571428571 150.3655078166982,389.2857142857142 150.3655078166982,391.4285714285714 150.3655078166982,393.57142857142856 150.3655078166982,395.71428571428567 150.3655078166982,397.8571428571428 150.3655078166982,399.99999999999994 150.3655078166982,402.1428571428571 150.3655078166982,404.2857142857143 150.3655078166982,406.42857142857133 150.3655078166982,408.57142857142856 150.3655078166982,410.71428571428567 150.3655078166982,412.8571428571428 150.3655078166982,414.99999999999994 150.3655078166982,417.14285714285705 150.3655078166982,419.2857142857142 150.3655078166982,421.4285714285714 150.3655078166982,423.5714285714285 150.3655078166982,425.7142857142857 150.3655078166982,427.8571428571428 150.3655078166982,429.99999999999994 150.3655078166982,432.1428571428571 150.3655078166982,434.2857142857143 150.3655078166982,436.42857142857133 150.3655078166982,438.5714285714285 150.3655078166982,440.71428571428567 150.3655078166982,442.85714285714283 150.3655078166982,444.9999999999999 150.3655078166982,447.1428571428571 150.3655078166982,449.2857142857142 150.3655078166982,451.42857142857144 150.3655078166982,453.57142857142856 150.3655078166982,455.71428571428567 150.3655078166982,457.85714285714283 150.3655078166982,460 150.3655078166982,462.1428571428571 150.3655078166982,464.2857142857142 150.3655078166982,466.42857142857133 150.3655078166982,468.57142857142856 150.3655078166982,470.71428571428567 150.3655078166982,472.8571428571427 150.3655078166982,474.99999999999994 150.3655078166982,477.14285714285705 150.3655078166982,479.2857142857142 150.3655078166982,481.42857142857133 150.3655078166982,483.5714285714285 150.3655078166982,485.71428571428567 150.3655078166982,487.85714285714283 150.3655078166982,490" style="fill:none;stroke:black;stroke-width:1" /><polyline points="150.3655078166982,10 151.3618527385312,10.323732089345187 152.35819766036423,10.647464178690367 153.35454258219724,10.971196268035554 154.35088750403028,11.294928357380732 155.3472324258633,11.618660446725919 156.3435773476963,11.942392536071097 157.33992226952932,12.266124625416285 158.33626719136234,12.589856714761464 159.33261211319535,12.91358880410665 160.32895703502837,13.23732089345183 161.32530195686138,13.561052982797017 162.32164687869442,13.884785072142195 163.31799180052744,14.208517161487382 164.31433672236045,14.53224925083256 165.31068164419347,14.855981340177749 166.30702656602648,15.179713429522927 167.3033714878595,15.503445518868116 168.2997164096925,15.827177608213294 169.29606133152555,16.150909697558482 170.29240625335856,16.47464178690366 171.28875117519158,16.798373876248846 172.2850960970246,17.122105965594024 173.2814410188576,17.445838054939212 174.27778594069062,17.76957014428439 175.27413086252366,18.09330223362958 176.27047578435668,18.417034322974757 177.2668207061897,18.740766412319942 178.2631656280227,19.06449850166513 179.25951054985572,19.38823059101031 180.25585547168873,19.71196268035549 181.25220039352175,20.035694769700676 182.24854531535476,20.35942685904586 183.2448902371878,20.68315894839104 184.24123515902082,21.00689103773622 185.23758008085383,21.33062312708141 186.23392500268685,21.654355216426595 187.23026992451986,21.978087305771773 188.22661484635287,22.30181939511695 189.2229597681859,22.62555148446214 190.21930469001893,22.949283573807328 191.21564961185192,23.273015663152506 192.21199453368496,23.596747752497688 193.20833945551797,23.92047984184287 194.204684377351,24.244211931188055 195.20102929918403,24.56794402053324 196.19737422101701,24.891676109878418 197.19371914285006,25.215408199223603 198.19006406468307,25.539140288568788 199.18640898651608,25.86287237791397 200.1827539083491,26.186604467259155 201.1790988301821,26.510336556604337 202.17544375201513,26.83406864594952 203.17178867384817,27.157800735294707 204.16813359568118,27.48153282463989 205.1644785175142,27.80526491398507 206.1608234393472,28.128997003330255 207.15716836118023,28.452729092675433 208.15351328301324,28.776461182020615 209.14985820484625,29.1001932713658 210.14620312667927,29.423925360710985 211.1425480485123,29.74765745005617 212.13889297034532,30.071389539401352 213.13523789217834,30.395121628746534 214.13158281401135,30.71885371809172 215.12792773584437,31.0425858074369 216.1242726576774,31.366317896782082 217.12061757951042,31.690049986127267 218.11696250134344,32.01378207547245 219.11330742317642,32.33751416481763 220.10965234500947,32.66124625416281" style="fill:none;stroke:black;stroke-width:1" /><polyline points="220.10965234500947,32.66124625416281 220.10965234500947,32.66124625416281 221.10599726684248,32.984978343508 222.1023421886755,33.30871043285318 223.0986871105085,33.63244252219836 224.09503203234152,33.956174611543545 225.09137695417456,34.27990670088873 226.08772187600755,34.603638790233916 227.0840667978406,34.9273708795791 228.0804117196736,35.25110296892428 229.07675664150662,35.57483505826946 230.07310156333966,35.89856714761465 231.06944648517265,36.22229923695983 232.06579140700563,36.546031326305005 233.06213632883868,36.8697634156502 234.05848125067172,37.193495504995376 235.0548261725047,37.517227594340554 236.05117109433775,37.84095968368574 237.04751601617076,38.164691773030924 238.04386093800377,38.48842386237611 239.04020585983676,38.812155951721294 240.0365507816698,39.13588804106648 241.03289570350285,39.45962013041166 242.02924062533583,39.783352219756836 243.02558554716887,40.10708430910203 244.02193046900186,40.430816398447206 245.0182753908349,40.754548487792384 246.01462031266792,41.078280577137576 247.01096523450093,41.402012666482754 248.00731015633394,41.72574475582794 249.00365507816696,42.049476845173125 250,42.3732089345183 250.99634492183299,42.69694102386349 251.99268984366603,43.02067311320867 252.98903476549904,43.34440520255386 253.98537968733206,43.668137291899036 254.9817246091651,43.99186938124422 255.97806953099808,44.31560147058941 256.9744144528311,44.63933355993459 257.9707593746641,44.96306564927977 258.96710429649715,45.286797738624955 259.9634492183302,45.61052982797014 260.9597941401632,45.93426191731532 261.9561390619962,46.25799400666051 262.9524839838292,46.58172609600568 263.94882890566225,46.90545818535087 264.94517382749524,47.229190274696045 265.9415187493283,47.55292236404123 266.93786367116127,47.876654453386415 267.9342085929943,48.2003865427316 268.93055351482735,48.52411863207678 269.92689843666034,48.84785072142196 270.9232433584934,49.17158281076715 271.91958828032637,49.49531490011233 272.9159332021594,49.81904698945752 273.91227812399245,50.1427790788027 274.90862304582544,50.46651116814788 275.9049679676585,50.79024325749306 276.90131288949146,51.113975346838245 277.8976578113245,51.43770743618343 278.89400273315755,51.76143952552861 279.89034765499053,52.08517161487379 280.8866925768235,52.40890370421898 281.88303749865656,52.732635793564164 282.8793824204896,53.05636788290935 283.8757273423226,53.38009997225453 284.87207226415563,53.70383206159971 285.8684171859886,54.0275641509449 286.86476210782166,54.35129624029009 287.86110702965465,54.67502832963525 288.85745195148763,54.99876041898044 289.8537968733207,55.32249250832562 290.8501417951537,55.64622459767081 291.84648671698676,55.96995668701599 292.84283163881975,56.29368877636117 293.8391765606528,56.61742086570636 294.8355214824858,56.941152955051535 295.8318664043188,57.26488504439672 296.82821132615186,57.588617133741906 297.8245562479849,57.9123492230871 298.8209011698179,58.236081312432276 299.8172460916509,58.559813401777454 300.8135910134839,58.88354549112264 301.8099359353169,59.20727758046782 302.8062808571499,59.531009669812995 303.802625778983,59.854741759158195 304.79897070081597,60.17847384850337 305.795315622649,60.50220593784856 306.79166054448206,60.825938027193736 307.78800546631504,61.149670116538914 308.784350388148,61.473402205884106 309.78069530998107,61.79713429522929 310.7770402318141,62.12086638457448 311.7733851536471,62.444598473919655 312.7697300754801,62.768330563264826 313.7660749973131,63.092062652610004 314.76241991914617,63.41579474195519 315.7587648409792,63.73952683130038 316.75510976281214,64.06325892064557 317.7514546846452,64.38699100999074 318.7477996064782,64.71072309933592 319.74414452831127,65.03445518868111 320.7404894501442,65.35818727802629 321.7368343719773,65.68191936737148 322.7331792938103,66.00565145671666 323.7295242156433,66.32938354606185 324.72586913747637,66.65311563540703 325.72221405930935,66.97684772475222 326.71855898114234,67.30057981409739 327.7149039029754,67.62431190344257 328.7112488248084,67.94804399278776 329.70759374664146,68.27177608213296 330.7039386684744,68.59550817147813 331.70028359030744,68.9192402608233 332.6966285121405,69.24297235016849 333.6929734339735,69.56670443951367 334.68931835580656,69.89043652885887 335.68566327763955,70.21416861820404 336.68200819947253,70.53790070754923 337.6783531213056,70.8616327968944 338.67469804313856,71.18536488623958 339.67104296497155,71.50909697558477 340.6673878868046,71.83282906492997 341.66373280863763,72.15656115427515 342.6600777304707,72.48029324362031 343.6564226523037,72.8040253329655 344.65276757413665,73.12775742231068 345.6491124959697,73.45148951165586 346.64545741780273,73.77522160100106 347.6418023396358,74.09895369034624 348.63814726146876,74.42268577969142 349.63449218330175,74.7464178690366" style="fill:none;stroke:black;stroke-width:1" /><circle cx="150.3655078166982" cy="61.42857142857142" r="1" stroke="black" fill="white" /><circle cx="150.3655078166982" cy="490" r="1" stroke="black" fill="white" /><circle cx="150.3655078166982" cy="277.85714285714283" r="1" stroke="black" fill="white" /><circle cx="150.3655078166982" cy="10" r="1" stroke="black" fill="white" /><circle cx="349.63449218330175" cy="74.7464178690366" r="1" stroke="black" fill="white" /><circle cx="220.10965234500947" cy="32.66124625416281" r="1" stroke="black" fill="white" /></svg>