<?xml version="1.0" encoding="UTF-8" standalone="no"?>
<svg
   version="1.1"
   id="Layer_1"
   x="0px"
   y="0px"
   width="2067"
   viewBox="0 0 2067 1903.5"
   enable-background="new 0 0 2732 2048"
   xml:space="preserve"
   sodipodi:docname="IMG_0898.svg"
   height="1903.5"
   xmlns:inkscape="http://www.inkscape.org/namespaces/inkscape"
   xmlns:sodipodi="http://sodipodi.sourceforge.net/DTD/sodipodi-0.dtd"
   xmlns="http://www.w3.org/2000/svg"
   xmlns:svg="http://www.w3.org/2000/svg"><defs
   id="defs619" /><sodipodi:namedview
   id="namedview617"
   pagecolor="#ffffff"
   bordercolor="#000000"
   borderopacity="0.25"
   inkscape:showpageshadow="2"
   inkscape:pageopacity="0.0"
   inkscape:pagecheckerboard="0"
   inkscape:deskcolor="#d1d1d1"
   showgrid="false" />





<path
   fill="none"
   opacity="1"
   stroke="#000000"
   stroke-linecap="round"
   stroke-linejoin="round"
   stroke-width="3"
   d="m 1186.5,874 c -5.0431,52.5728 -4.3739,105.3047 -3.8165,157.998 0.2539,24.0115 2.4832,48.002 3.8166,72.002"
   id="path502" />
<path
   fill="none"
   opacity="1"
   stroke="#000000"
   stroke-linecap="round"
   stroke-linejoin="round"
   stroke-width="3"
   d="m 859.5,872 c 1.8094,11.93256 2.1409,24.04205 2.7018,36.01398 1.2785,27.28902 1.5016,54.65932 1.1583,81.98432 -0.402,32.0074 -1.8103,64.0034 -2.9338,95.9991 -0.1178,3.3527 -1.2597,6.6692 -1.9264,10.0026"
   id="path504" />

<path
   fill="none"
   opacity="1"
   stroke="#000000"
   stroke-linecap="round"
   stroke-linejoin="round"
   stroke-width="3"
   d="m 1240.5,892 c -0.2452,66.0092 -4.8529,132.0625 2,198"
   id="path508" />
<path
   fill="none"
   opacity="1"
   stroke="#000000"
   stroke-linecap="round"
   stroke-linejoin="round"
   stroke-width="3"
   d="m 804.5,888 c 0.683,64 4.3303,128 0,192"
   id="path510" />




















































</svg>
