<?xml version="1.0" encoding="UTF-8" standalone="no"?>
<svg
   version="1.1"
   id="Layer_1"
   x="0px"
   y="0px"
   width="2095"
   viewBox="0 0 2095 1931"
   enable-background="new 0 0 2732 2048"
   xml:space="preserve"
   sodipodi:docname="shoulder_dart_one_waistline_dart.svg"
   height="1931"
   inkscape:export-filename="triple_shoulder_dart_standard.svg"
   inkscape:export-xdpi="96"
   inkscape:export-ydpi="96"
   inkscape:version="1.3.2 (1:1.3.2+202311252150+091e20ef0f)"
   xmlns:inkscape="http://www.inkscape.org/namespaces/inkscape"
   xmlns:sodipodi="http://sodipodi.sourceforge.net/DTD/sodipodi-0.dtd"
   xmlns="http://www.w3.org/2000/svg"
   xmlns:svg="http://www.w3.org/2000/svg"><defs
   id="defs727" /><sodipodi:namedview
   id="namedview725"
   pagecolor="#ffffff"
   bordercolor="#000000"
   borderopacity="0.25"
   inkscape:showpageshadow="2"
   inkscape:pageopacity="0.0"
   inkscape:pagecheckerboard="0"
   inkscape:deskcolor="#d1d1d1"
   showgrid="false"
   inkscape:zoom="0.42257897"
   inkscape:cx="1048.3248"
   inkscape:cy="1180.8444"
   inkscape:window-width="1920"
   inkscape:window-height="1013"
   inkscape:window-x="0"
   inkscape:window-y="2560"
   inkscape:window-maximized="1"
   inkscape:current-layer="Layer_1" />



























































<g
   id="g525"
   transform="matrix(1.0153812,0,0,1.0082129,2.7386263,4.9905114)"><path
     fill="none"
     opacity="1"
     stroke="#000000"
     stroke-linecap="round"
     stroke-linejoin="round"
     stroke-width="3"
     d="m 748.5,485.5 c 8,25 16.0424,49.98651 23.99,75.00317 11.9568,37.63642 22.9642,75.57862 31.6345,114.08136 2.8595,12.69782 5.9788,25.66883 6.3755,38.91547"
     id="path6" /><path
     fill="none"
     opacity="1"
     stroke="#000000"
     stroke-linecap="round"
     stroke-linejoin="round"
     stroke-width="3"
     d="m 1302.5,486.5 c -11.9341,28.53381 -21.4148,57.97125 -31.9434,87.02051 -13.145,36.26806 -24.4077,73.08545 -32.2624,110.93676 -2.0059,9.66633 -4.735,19.1814 -5.7942,29.04273"
     id="path7" /></g><g
   id="g1"
   transform="translate(25.824755,-22.5)"><path
     fill="none"
     opacity="1"
     stroke="#000000"
     stroke-linecap="round"
     stroke-linejoin="round"
     stroke-width="3"
     d="m 1186.5,874 c -5.0431,52.5728 -4.3739,105.3047 -3.8165,157.998 0.2539,24.0115 2.4832,48.002 3.8166,72.002"
     id="path377" /><path
     fill="none"
     opacity="1"
     stroke="#000000"
     stroke-linecap="round"
     stroke-linejoin="round"
     stroke-width="3"
     d="m 859.5,872 c 1.8094,11.93256 2.1409,24.04205 2.7018,36.01398 1.2785,27.28902 1.5016,54.65932 1.1583,81.98432 -0.402,32.0074 -1.8103,64.0034 -2.9338,95.9991 -0.1178,3.3527 -1.2597,6.6692 -1.9264,10.0026"
     id="path379" /></g></svg>
