<?xml version="1.0" encoding="UTF-8" standalone="no"?>
<svg
   version="1.1"
   id="Layer_1"
   x="0px"
   y="0px"
   width="1893.5"
   viewBox="0 0 1893.5 1745"
   enable-background="new 0 0 2732 2048"
   xml:space="preserve"
   sodipodi:docname="IMG_0904.svg"
   height="1745"
   inkscape:export-filename="../../stoff/Data/PreviewPictures/Breit/Sleeves/flared.svg"
   inkscape:export-xdpi="96"
   inkscape:export-ydpi="96"
   xmlns:inkscape="http://www.inkscape.org/namespaces/inkscape"
   xmlns:sodipodi="http://sodipodi.sourceforge.net/DTD/sodipodi-0.dtd"
   xmlns="http://www.w3.org/2000/svg"
   xmlns:svg="http://www.w3.org/2000/svg"><defs
   id="defs1279" /><sodipodi:namedview
   id="namedview1277"
   pagecolor="#ffffff"
   bordercolor="#000000"
   borderopacity="0.25"
   inkscape:showpageshadow="2"
   inkscape:pageopacity="0.0"
   inkscape:pagecheckerboard="0"
   inkscape:deskcolor="#d1d1d1"
   showgrid="false" />




<path
   fill="none"
   opacity="1"
   stroke="#000000"
   stroke-linecap="round"
   stroke-linejoin="round"
   stroke-width="3"
   d="m 665.5,452.5 c -34.60858,5.23074 -57.14001,27.21051 -74.89752,55.06537 -19.95087,31.29541 -31.72632,66.0755 -39.97711,101.96344 -11.737,51.052 -29.79316,99.82287 -49.97217,148.03534 C 469.59778,831.76343 431,902.10455 392.34857,972.4167 c -16.76404,30.4963 -35.11059,60.1258 -52.9176,90.0422 -3.02313,5.0791 -2.78449,9.2376 -1.25702,15.1257 10.20044,39.3196 37.86578,62.3646 72.39014,78.7806 29.32422,13.9439 61.01843,19.3803 92.88275,24.4676 16.66693,2.661 24.59795,3.7386 45.5316,4.6187 7.88866,0.3316 15.68776,0.8971 21.52248,0.9515 24.66462,0.2287 66.19327,-3.8893 89.91987,2.3781 1.15203,-12.0563 0.017,-1.515 0.0792,-16.2811 0,-16.3334 -1.11877,-32.7643 0.2962,-48.9741 1.60175,-18.3489 2.89844,-36.752 5.20704,-55.0884 2.13592,-16.9648 4.84728,-33.89 6.70227,-50.9152 1.82543,-16.753 4.9779,-33.413 8.10906,-49.9628 3.28058,-17.33904 6.297,-34.73748 9.59498,-52.07671 3.72645,-19.59192 7.58335,-39.22797 9.69565,-59.0249 0.8806,-8.25275 3.2981,-16.49939 2.3943,-24.95783 -1.0737,-10.04724 4.6692,-19.86664 1.0005,-30.00006"
   id="path1166"
   sodipodi:nodetypes="csssssccsscccsssssssc" />
<path
   fill="none"
   opacity="1"
   stroke="#000000"
   stroke-linecap="round"
   stroke-linejoin="round"
   stroke-width="3"
   d="m 1178.5,799.5 c 1.4025,24.47186 3.8582,48.77051 7.6584,73.05347 3.9155,25.01892 8.0381,50.01825 12.6121,74.89679 4.6578,25.33454 8.2838,50.84664 13.2697,76.14044 2.2985,11.6605 2.9964,23.9369 4.5748,35.8942 5.3935,40.8593 6.6804,81.8795 5.8442,123.0142 -0.034,1.6866 1.5779,1.865 1.9694,3.4596 9.7197,-4.2356 19.8253,-4.768 30.0505,-5.6905 20.007,-1.8051 40.1149,-0.4119 59.9864,-2.1603 17.3393,-1.5254 34.7197,-1.9108 52.0465,-3.4759 52.1583,-4.7116 102.3366,-14.9053 145.0051,-48.11 17.9667,-13.9818 27.8559,-33.1564 34.7737,-54.0911 1.3403,-4.0561 0.01,-8.5862 -2.6065,-13.0391 -27.5779,-46.9987 -55.2413,-93.945 -81.2787,-141.84053 -36.6785,-67.47015 -70.5529,-136.15473 -98.1728,-207.94849 -15.7185,-40.85815 -26.5359,-82.96856 -37.9208,-125.05194 -9.8265,-36.32287 -24.1481,-70.73199 -48.7347,-100.11548 -13.4843,-16.11499 -29.9359,-27.11175 -50.0316,-33.08877 -3.4771,-1.03418 -6.7331,-0.30637 -10.0457,-0.84659"
   id="path1168" />

<path
   fill="none"
   opacity="1"
   stroke="#000000"
   stroke-linecap="round"
   stroke-linejoin="round"
   stroke-width="3"
   d="m 1386.7964,1173.1586 c -13.165,5.3899 -42.5592,12.6793 -56.3468,15.0478 -22.4125,3.8502 -45.0441,7.9132 -67.9336,6.0927 -11.5651,-0.9198 -27.3649,-1.1517 -37.7165,-7.9909"
   id="path1172"
   sodipodi:nodetypes="cssc" />


<path
   fill="none"
   opacity="1"
   stroke="#000000"
   stroke-linecap="round"
   stroke-linejoin="round"
   stroke-width="3"
   d="m 542.97171,1184.6533 c 30.82418,3.7673 40.70109,7.8402 45.97325,8.5686 24.7124,3.414 70.39749,4.0453 71.87787,-7.7454"
   id="path1178"
   sodipodi:nodetypes="csc" />
















































</svg>
