<?xml version="1.0" encoding="UTF-8" standalone="no"?>
<svg
   version="1.1"
   id="Layer_1"
   x="0px"
   y="0px"
   width="2101.5"
   viewBox="0 0 2101.5 1935"
   enable-background="new 0 0 2732 2048"
   xml:space="preserve"
   sodipodi:docname="file(1).svg"
   height="1935"
   xmlns:inkscape="http://www.inkscape.org/namespaces/inkscape"
   xmlns:sodipodi="http://sodipodi.sourceforge.net/DTD/sodipodi-0.dtd"
   xmlns="http://www.w3.org/2000/svg"
   xmlns:svg="http://www.w3.org/2000/svg"><defs
   id="defs171" /><sodipodi:namedview
   id="namedview169"
   pagecolor="#ffffff"
   bordercolor="#000000"
   borderopacity="0.25"
   inkscape:showpageshadow="2"
   inkscape:pageopacity="0.0"
   inkscape:pagecheckerboard="0"
   inkscape:deskcolor="#d1d1d1"
   showgrid="false" />




<path
   fill="none"
   opacity="1"
   stroke="#000000"
   stroke-linecap="round"
   stroke-linejoin="round"
   stroke-width="3"
   d="m 1340.5,498.5 c 25.2053,13.46045 41.72,35.30615 55.8811,59.07086 11.9113,19.98889 23.0682,40.44458 34.048,60.9671 14.0008,26.16974 22.5014,54.38996 30.1361,82.94458 12.3236,46.09253 20.8122,93.24067 37.9231,138.02198 12.65,33.10662 28.6363,64.5877 44.6941,96.15704 22.3637,43.96744 49.9702,85.39684 65.3579,132.82534 11.2445,34.6579 5.7191,65.2397 -21.0403,91.0131"
   id="path10" />
<path
   fill="none"
   opacity="1"
   stroke="#000000"
   stroke-linecap="round"
   stroke-linejoin="round"
   stroke-width="3"
   d="m 740.5,500.5 c -25.1378,13.08533 -41.7476,34.97247 -55.5562,58.26318 -12.8891,21.74012 -25.2277,43.97205 -36.5052,66.70636 -14.85517,29.94635 -23.6283,61.88623 -31.96741,94.02301 -9.17895,35.37348 -16.1867,71.32154 -27.97107,106.00751 -14.22882,41.88129 -34.29913,81.02686 -54.74823,120.13165 -20.71631,39.61569 -44.73614,77.71609 -60.02215,119.95139 -10.14362,28.0265 -10.33454,55.9419 7.5448,82.0712 3.33307,4.8708 7.71191,8.3828 11.22546,12.8457"
   id="path12" />
<path
   fill="none"
   opacity="1"
   stroke="#000000"
   stroke-linecap="round"
   stroke-linejoin="round"
   stroke-width="3"
   d="m 753.5,871.5 c -15.9641,27.25806 -24.3459,57.11102 -28.7958,88.02936 -2.4712,17.16954 -3.7566,34.62514 -3.9924,51.97354 -0.3367,24.7542 -1.8257,49.423 -4.3915,73.9783 -3.181,30.4412 -10.8631,59.9136 -31.0459,83.8284 -16.5558,19.6172 -38.97283,30.8006 -63.75774,37.2545 -7.06817,1.8404 -13.03869,-3.7299 -20.03918,-2.1649 -3.54834,0.7933 -7.43384,-0.586 -10.97748,1.1008"
   id="path14" />
<path
   fill="none"
   opacity="1"
   stroke="#000000"
   stroke-linecap="round"
   stroke-linejoin="round"
   stroke-width="3"
   d="m 1328.5,869.5 c 4.8846,15.44617 14.4661,28.78918 18.3988,44.90265 4.0521,16.60205 7.6658,33.11346 9.7013,50.08535 3.946,32.9024 3.5721,66.044 6.1294,98.9942 1.9835,25.5587 5.1755,51.1714 15.8042,75.0028 13.4027,30.0511 35.7539,50.3706 66.9342,61.1084 5.6642,1.9508 10.7722,6.2825 17.0321,1.9066"
   id="path16" />






<path
   fill="none"
   opacity="1"
   stroke="#000000"
   stroke-linecap="round"
   stroke-linejoin="round"
   stroke-width="3"
   d="m 503.5,1199.5 c 14.84143,17.3188 31.15363,32.7865 53.01703,40.9543 9.3584,3.4963 15.33612,2.0708 19.78699,-6.0616 4.14239,-7.5688 7.48205,-15.5669 12.08825,-22.9598 3.16931,-5.0866 0.7464,-11.0607 -2.13434,-14.7436 -9.88806,-12.6412 -19.78698,-25.6789 -33.83593,-34.0586 -13.72443,-8.1861 -28.40534,-12.4845 -44.97541,-9.4193 -7.48303,1.3841 -11.14135,6.3448 -13.61303,11.4501 -3.4654,7.1578 -8.56928,13.3658 -11.66077,21.7278 8.5011,5.9414 17.85718,9.3083 28.06598,12.8613 22.33838,7.7748 44.2088,18.2587 58.26123,39.2494"
   id="path30" />





<path
   fill="none"
   opacity="1"
   stroke="#000000"
   stroke-linecap="round"
   stroke-linejoin="round"
   stroke-width="3"
   d="m 1536.5,1112.5 c 6.7159,13.0388 11.7646,26.6877 13.7195,41.3774 11.2805,-1.9462 21.2805,-1.9462 32.3684,-0.033 -2.0844,-12.4342 6.5631,-21.8939 7.9121,-33.3442"
   id="path42" />

<path
   fill="none"
   opacity="1"
   stroke="#000000"
   stroke-linecap="round"
   stroke-linejoin="round"
   stroke-width="3"
   d="m 1581.5,1154.5 c 9.4401,8.9334 14.4203,20.6539 20.3346,31.4894 -1.3108,2.707 -2.6436,3.8866 -5.2899,4.6629 -13.1454,3.8569 -20.9165,14.7859 -30.0138,23.8786 -9.5457,9.5406 -20.2532,17.4575 -32.0393,23.954 -4.0359,2.2246 -8.793,2.8849 -13.0618,3.5905 -3.6216,0.5988 -8.1025,0.3515 -11.3586,-5.3295 -5.3468,-9.3285 -9.6961,-19.2221 -15.5712,-28.2459"
   id="path46" />
<path
   fill="none"
   opacity="1"
   stroke="#000000"
   stroke-linecap="round"
   stroke-linejoin="round"
   stroke-width="3"
   d="m 1577.5,1200.5 c -2.3334,-2.4845 -5.1025,-0.6594 -6.9333,0.1506 -21.1554,9.3606 -42.8461,18.1111 -55.0667,39.8494"
   id="path48" />
<path
   fill="none"
   opacity="1"
   stroke="#000000"
   stroke-linecap="round"
   stroke-linejoin="round"
   stroke-width="3"
   d="m 1568.5,1075.5 c 3.2542,16.4259 8.5027,32.379 11.3198,48.9456 0.7193,4.229 -2.081,10.0835 3.6802,13.0544"
   id="path50" />


<path
   fill="none"
   opacity="1"
   stroke="#000000"
   stroke-linecap="round"
   stroke-linejoin="round"
   stroke-width="3"
   d="m 516.5,1075.5 c -4.83881,17.4768 -10.77722,34.7247 -11.8941,53.0065 -0.21686,3.5481 -4.54456,4.4409 -4.1059,7.9935"
   id="path56" />



<path
   fill="none"
   opacity="1"
   stroke="#000000"
   stroke-linecap="round"
   stroke-linejoin="round"
   stroke-width="3"
   d="m 583.50006,1115.5 c -5.66669,9 -11.52069,17.889 -16.94,27.0355 -4.2619,7.1931 -10.38007,12.3112 -17.06006,16.9645"
   id="path64" />



<path
   fill="none"
   opacity="1"
   stroke="#000000"
   stroke-linecap="round"
   stroke-linejoin="round"
   stroke-width="3"
   d="m 1502.5,1118.5 c 7.7073,12.1139 14.2529,25.0354 24.9803,35.0211 8.3757,7.7965 10.0064,7.9625 21.0197,0.9789"
   id="path72" />

<path
   fill="none"
   opacity="1"
   stroke="#000000"
   stroke-linecap="round"
   stroke-linejoin="round"
   stroke-width="3"
   d="m 547.5,1111.5 c -5.30402,13.4491 -11.31867,26.6554 -14,41"
   id="path76" />



<path
   fill="none"
   opacity="1"
   stroke="#000000"
   stroke-linecap="round"
   stroke-linejoin="round"
   stroke-width="3"
   d="m 1482.5,1141.5 c 6.8185,14.5996 20.733,21.428 33.1306,29.8066 1.3353,0.9025 5.0871,1.5505 6.806,-0.8519 3.1725,-4.4336 8.6517,-5.9154 12.0634,-9.9547"
   id="path84" />


<path
   fill="none"
   opacity="1"
   stroke="#000000"
   stroke-linecap="round"
   stroke-linejoin="round"
   stroke-width="3"
   d="m 600.5,1144.5 c -8.96979,11.7261 -20.74701,20.1434 -33,28"
   id="path90" />
<path
   fill="none"
   opacity="1"
   stroke="#000000"
   stroke-linecap="round"
   stroke-linejoin="round"
   stroke-width="3"
   d="m 1496.5,1197.5 c -9.9933,-8.8807 -21.433,-13.5426 -35.0868,-11.7515 7.869,8.5497 17.2074,12.8351 29.0868,9.7515"
   id="path92" />
<path
   fill="none"
   opacity="1"
   stroke="#000000"
   stroke-linecap="round"
   stroke-linejoin="round"
   stroke-width="3"
   d="m 647.5,1182.5 c -5.86658,-0.3583 -6.99963,5.8776 -11.03186,7.9376 -7.44727,3.8051 -13.79688,9.5987 -21.96814,12.0624"
   id="path94" />
<path
   fill="none"
   opacity="1"
   stroke="#000000"
   stroke-linecap="round"
   stroke-linejoin="round"
   stroke-width="3"
   d="m 588.5,1196.5 c 9.44739,-5.3815 18.13116,-12.6417 30.00671,-12.1692 0.27985,0.011 1.41065,-1.2535 2.96003,0.2045 0.85266,0.8025 1.36657,1.2981 2.30719,1.759 -8.41632,6.9594 -17.41724,12.2234 -29.27393,9.2057"
   id="path96" />



<path
   fill="none"
   opacity="1"
   stroke="#000000"
   stroke-linecap="round"
   stroke-linejoin="round"
   stroke-width="3"
   d="m 1435.5,1181.5 c 9.4022,4.0947 17.0322,11.0559 24.7335,17.3271 10.0434,8.1786 20.745,8.4253 32.2665,7.6729"
   id="path104" />



<path
   fill="none"
   opacity="1"
   stroke="#000000"
   stroke-linecap="round"
   stroke-linejoin="round"
   stroke-width="3"
   d="m 1517.5,1172.5 c -8.5378,10.0405 -17.0668,20.0874 -23,32"
   id="path112" />


<path
   fill="none"
   opacity="1"
   stroke="#000000"
   stroke-linecap="round"
   stroke-linejoin="round"
   stroke-width="3"
   d="m 610.5,1208.5 c -6.86633,1.9358 -13.44275,5.9006 -21,3"
   id="path118" />
<path
   fill="none"
   opacity="1"
   stroke="#000000"
   stroke-linecap="round"
   stroke-linejoin="round"
   stroke-width="3"
   d="m 492.5,1117.5 c 2.46899,12.2401 10.21667,23.0139 10,36"
   id="path120" />























</svg>
