<?xml version="1.0" encoding="UTF-8" standalone="no"?>
<svg
   version="1.1"
   id="Layer_1"
   x="0px"
   y="0px"
   width="2131"
   viewBox="0 0 2131 1965.5"
   enable-background="new 0 0 2732 2048"
   xml:space="preserve"
   height="1965.5"
   xmlns="http://www.w3.org/2000/svg"
   xmlns:svg="http://www.w3.org/2000/svg"><defs
   id="defs1013" />




<path
   fill="none"
   opacity="1"
   stroke="#000000"
   stroke-linecap="round"
   stroke-linejoin="round"
   stroke-width="3"
   d="m 1343.5,810 c 7.09,41.54059 22.5974,79.96814 44.0966,115.94226 24.3298,40.71034 41.1617,84.56444 57.0516,129.00474 24.2095,67.7075 45.2391,136.4892 69.5111,204.1752 2.02,5.6333 4.2518,7.9949 9.3418,8.8712 13.6633,2.3527 27.2612,5.8938 41.017,6.6951 16.8715,0.9829 33.0881,-4.0529 48.9995,-9.6387 22.0932,-7.7561 43.0598,-17.6796 63.1496,-29.772 5.2261,-3.1456 6.5728,-5.6032 5.9754,-11.2928 -2.124,-20.224 -6.0222,-40.1817 -10.4099,-59.9256 -7.1526,-32.1844 -14.9056,-64.2474 -23.4934,-96.1239 -11.3682,-42.1964 -23.1802,-84.2277 -36.0914,-125.98121 -9.457,-30.58265 -15.09,-61.99207 -18.3688,-93.93159 -2.907,-28.3197 -5.3777,-56.66204 -7.951,-85.00708 -3.3867,-37.30554 -7.623,-74.60613 -16.9392,-110.98718 -13.933,-54.41199 -41.2098,-101.02398 -83.9357,-137.97436 -21.1408,-18.28308 -45.6545,-28.64026 -73.9152,-24.77649 -20.5857,2.81451 -38.9193,11.42413 -51.038,29.72241"
   id="path836" />
<path
   fill="none"
   opacity="1"
   stroke="#000000"
   stroke-linecap="round"
   stroke-linejoin="round"
   stroke-width="3"
   d="m 751.5,518 c -4.7931,-1.37805 -6.9565,-6.05841 -9.7382,-9.22968 -19.2146,-21.90673 -59.1893,-27.57617 -86.3198,-14.8944 -34.098,15.93853 -57.447,42.95996 -77.9077,73.14727 -23.9961,35.40338 -35.8149,75.25269 -43.2134,116.94501 -6.118,34.47668 -8.6501,69.2558 -12.0058,104.01398 -4.141,42.89398 -7.1995,85.99579 -17.79844,128.02203 -5.34417,21.19061 -11.9071,42.05369 -18.28717,62.91299 -14.06347,45.9799 -26.33954,92.4091 -37.62536,139.1079 -6.57233,27.1951 -12.63929,54.5409 -17.80378,82.0313 -1.72674,9.1916 -3.00024,18.6055 -4.42797,28.8539 24.43151,16.9364 51.70501,28.6078 80.09918,38.1742 23.35944,7.8703 46.60104,6.9867 70.04374,0.9749 0.5452,-0.1397 1.541,-1.0169 1.9525,-0.9211 15.3928,3.583 17.6151,-7.8242 21.0591,-18.1293 18.2761,-54.6858 35.8079,-109.6402 55.2393,-163.9137 15.2238,-42.5211 27.855,-86.1255 49.5944,-126.1709 7.7524,-14.2806 15.7566,-28.43075 23.3182,-42.83047 16.3938,-31.2193 31.1807,-62.88647 36.9527,-98.07239 0.4328,-2.63916 2.3725,-5.06219 1.8685,-8.02154"
   id="path838" />




<path
   fill="none"
   opacity="1"
   stroke="#000000"
   stroke-linecap="round"
   stroke-linejoin="round"
   stroke-width="3"
   d="m 1350.5,664 c 5.0681,25.80121 23.699,41.81848 42.0229,57.97388 22.8487,20.14441 47.7272,38.10223 65.1102,63.93658 8.2869,12.3161 12.2099,25.70282 13.8669,40.08954"
   id="path848" />
<path
   fill="none"
   opacity="1"
   stroke="#000000"
   stroke-linecap="round"
   stroke-linejoin="round"
   stroke-width="3"
   d="m 758.5,665 c -1.6365,14.21643 -9.8395,24.92798 -19.0322,34.97052 -21.7418,23.7514 -49.0635,41.3941 -71.0768,64.92755 -12.3442,13.19653 -22.0376,27.62872 -26.8601,45.11048 -1.2566,4.55505 -2.7691,9.12408 -2.0309,13.99145"
   id="path850" />



<path
   fill="none"
   opacity="1"
   stroke="#000000"
   stroke-linecap="round"
   stroke-linejoin="round"
   stroke-width="3"
   d="m 753.5,584 c -2.6504,23.24237 -18.8688,31.99628 -38.9768,37.09161 -12.9553,3.2829 -26.6207,4.77936 -37.219,14.69922 -2.4573,2.30005 -3.894,5.45264 -6.8042,7.20917"
   id="path858" />
<path
   fill="none"
   opacity="1"
   stroke="#000000"
   stroke-linecap="round"
   stroke-linejoin="round"
   stroke-width="3"
   d="m 1358.5,589 c 1.3315,15.78912 11.9359,26.40851 32.0017,31.99377 7.3228,2.03833 14.6083,4.25354 22.0114,5.9491 11.5752,2.65125 20.9128,8.54279 27.9869,18.05713"
   id="path860" />


<path
   fill="none"
   opacity="1"
   stroke="#000000"
   stroke-linecap="round"
   stroke-linejoin="round"
   stroke-width="3"
   d="m 754.5,636 c -4.9503,13.89856 -16.3484,21.66656 -28.0367,28.94086 C 711.3069,674.37335 695.319,682.50061 681.5,694"
   id="path866" />

<path
   fill="none"
   opacity="1"
   stroke="#000000"
   stroke-linecap="round"
   stroke-linejoin="round"
   stroke-width="3"
   d="m 1356.5,639 c 5.8505,13.48291 17.1246,21.97009 29.1396,28.75256 15.2143,8.58838 30.1691,17.38147 43.8604,28.24744"
   id="path870" />


<path
   fill="none"
   opacity="1"
   stroke="#000000"
   stroke-linecap="round"
   stroke-linejoin="round"
   stroke-width="3"
   d="m 1434.5,548 c -4.0328,-17.94458 -33.1912,-26.39356 -49.026,-22.09576 -5.2944,1.43695 -10.2632,4.2724 -15.974,4.09576"
   id="path876" />
<path
   fill="none"
   opacity="1"
   stroke="#000000"
   stroke-linecap="round"
   stroke-linejoin="round"
   stroke-width="3"
   d="m 741.5,530 c -11.4824,-2.95606 -21.9775,-8.31128 -35.1053,-5.49042 C 692.3564,527.52606 682.0309,533.38678 675.5,546"
   id="path878" />

<path
   fill="none"
   opacity="1"
   stroke="#000000"
   stroke-linecap="round"
   stroke-linejoin="round"
   stroke-width="3"
   d="m 753.5,550 c -16.0386,21.49182 -40.8517,27.80597 -64,37"
   id="path882" />
<path
   fill="none"
   opacity="1"
   stroke="#000000"
   stroke-linecap="round"
   stroke-linejoin="round"
   stroke-width="3"
   d="m 1358.5,550 c 7.5569,16.36224 22.8148,22.74023 38.0375,28.90741 8.0381,3.25641 16.4605,5.56409 23.9625,10.09259"
   id="path884" />



<path
   fill="none"
   opacity="1"
   stroke="#000000"
   stroke-linecap="round"
   stroke-linejoin="round"
   stroke-width="3"
   d="m 703.5,564 c 10.5199,-5.51251 22.2028,-9.1886 31.1946,-19.23163 C 725.5,541.43488 717.5,543.84241 709.5,545"
   id="path892" />
<path
   fill="none"
   opacity="1"
   stroke="#000000"
   stroke-linecap="round"
   stroke-linejoin="round"
   stroke-width="3"
   d="m 1348.5,718 c 1.1279,11.37506 6.7045,20.70807 14.072,28.93549 7.3367,8.19287 13.0297,17.57605 19.928,26.06451"
   id="path894" />

<path
   fill="none"
   opacity="1"
   stroke="#000000"
   stroke-linecap="round"
   stroke-linejoin="round"
   stroke-width="3"
   d="M 748.5,542 C 741.0211,517.65179 731.2109,512.26996 709.4993,512.97778 704.8376,513.12976 700.1666,513 695.5,513"
   id="path898" />

<path
   fill="none"
   opacity="1"
   stroke="#000000"
   stroke-linecap="round"
   stroke-linejoin="round"
   stroke-width="3"
   d="m 761.5,720 c -2.8929,14.13092 -12.7814,24.14441 -21.1846,34.85523 C 736.1813,760.12463 732.449,765.62842 728.5,771"
   id="path902" />
<path
   fill="none"
   opacity="1"
   stroke="#000000"
   stroke-linecap="round"
   stroke-linejoin="round"
   stroke-width="3"
   d="m 1415.5,514 c -7,1.38538 -13.8882,-0.84033 -21.0219,-0.2771 -18.2349,1.43988 -27.0721,12.36017 -31.9781,28.2771"
   id="path904" />












<path
   fill="none"
   opacity="1"
   stroke="#000000"
   stroke-linecap="round"
   stroke-linejoin="round"
   stroke-width="3"
   d="m 1377.5,547 c 6.223,10.16547 18.3445,11.48334 27,18"
   id="path930" />
<path
   fill="none"
   opacity="1"
   stroke="#000000"
   stroke-linecap="round"
   stroke-linejoin="round"
   stroke-width="3"
   d="m 752.5,614 c -3.397,13.07178 -9.1309,25.04004 -17,36"
   id="path932" />

<path
   fill="none"
   opacity="1"
   stroke="#000000"
   stroke-linecap="round"
   stroke-linejoin="round"
   stroke-width="3"
   d="m 751.5,566 c -4.5002,10.37665 -11.7397,18.13293 -22,23"
   id="path936" />

<path
   fill="none"
   opacity="1"
   stroke="#000000"
   stroke-linecap="round"
   stroke-linejoin="round"
   stroke-width="3"
   d="m 1358.5,569 c 6.3322,8.72858 12.8386,17.27478 23,22"
   id="path940" />


<path
   fill="none"
   opacity="1"
   stroke="#000000"
   stroke-linecap="round"
   stroke-linejoin="round"
   stroke-width="3"
   d="m 1362.5,625 c -1.8522,10.92609 6.5103,16.74487 12,24"
   id="path946" />
<path
   fill="none"
   opacity="1"
   stroke="#000000"
   stroke-linecap="round"
   stroke-linejoin="round"
   stroke-width="3"
   d="m 1401.5,546 c -9.244,-2.83246 -18.7124,0.61334 -28,-1"
   id="path948" />
<path
   fill="none"
   opacity="1"
   stroke="#000000"
   stroke-linecap="round"
   stroke-linejoin="round"
   stroke-width="3"
   d="m 1352.5,655 c 6.8448,7.15515 11.4039,16.59607 21,21"
   id="path950" />
<path
   fill="none"
   opacity="1"
   stroke="#000000"
   stroke-linecap="round"
   stroke-linejoin="round"
   stroke-width="3"
   d="m 757.5,652 c -3.8969,9.67938 -12.1417,15.76697 -19,23"
   id="path952" />
<path
   fill="none"
   opacity="1"
   stroke="#000000"
   stroke-linecap="round"
   stroke-linejoin="round"
   stroke-width="3"
   d="m 1391.5,508.00006 c -7.3334,1 -14.6666,2 -22,3"
   id="path954" />

<path
   fill="none"
   opacity="1"
   stroke="#000000"
   stroke-linecap="round"
   stroke-linejoin="round"
   stroke-width="3"
   d="m 739.5,509 c -6.8193,0.85999 -13.1339,-3.32727 -20,-2"
   id="path958" />












<path
   fill="none"
   opacity="1"
   stroke="#000000"
   stroke-linecap="round"
   stroke-linejoin="round"
   stroke-width="3"
   d="m 747.5,622 c -7.5447,-0.69586 -9.1682,6.89777 -14,10"
   id="path984" />


<path
   fill="none"
   opacity="1"
   stroke="#000000"
   stroke-linecap="round"
   stroke-linejoin="round"
   stroke-width="3"
   d="m 1358.5,617 c 2.066,1.9339 0.451,6.26959 5.9928,6.37628 5.27,0.10144 8.1182,6.15717 12.0072,9.62372"
   id="path990" />









</svg>
