<?xml version="1.0" encoding="UTF-8" standalone="no"?>
<svg
   version="1.1"
   id="Layer_1"
   x="0px"
   y="0px"
   width="2079"
   viewBox="0 0 2079 1915"
   enable-background="new 0 0 2732 2048"
   xml:space="preserve"
   sodipodi:docname="IMG_0890.svg"
   height="1915"
   xmlns:inkscape="http://www.inkscape.org/namespaces/inkscape"
   xmlns:sodipodi="http://sodipodi.sourceforge.net/DTD/sodipodi-0.dtd"
   xmlns="http://www.w3.org/2000/svg"
   xmlns:svg="http://www.w3.org/2000/svg"><defs
   id="defs390" /><sodipodi:namedview
   id="namedview388"
   pagecolor="#ffffff"
   bordercolor="#000000"
   borderopacity="0.25"
   inkscape:showpageshadow="2"
   inkscape:pageopacity="0.0"
   inkscape:pagecheckerboard="0"
   inkscape:deskcolor="#d1d1d1"
   showgrid="false" />




<path
   fill="none"
   opacity="1"
   stroke="#000000"
   stroke-linecap="round"
   stroke-linejoin="round"
   stroke-width="3"
   d="m 1484.5,663.5 c 3.3073,7.32336 3.7441,15.23547 3.8979,23.00201 0.6185,31.22571 9.4333,60.39344 21.0456,89.02094 15.9057,39.21197 41.7278,72.3371 65.119,106.93475 29.6821,43.90241 47.7465,92.2839 58.1401,144.0015 3.6828,18.325 4.5985,36.6529 3.5917,55.0296 -1.1813,21.5572 -11.3158,39.037 -27.7005,53.1203 -3.9637,3.4068 -6.7604,0.392 -10.0938,-0.1091"
   id="path141" />
<path
   fill="none"
   opacity="1"
   stroke="#000000"
   stroke-linecap="round"
   stroke-linejoin="round"
   stroke-width="3"
   d="m 574.5,665.5 c -3.38599,3.91498 -1.88763,8.63238 -1.94281,13.00073 -0.43848,34.70185 -9.60523,67.25446 -22.92926,99.05286 -14.64008,34.93945 -37.08813,65.03857 -58.33368,95.80432 -19.88837,28.80029 -36.60382,59.12842 -47.55359,92.22179 -10.81885,32.698 -20.39184,65.9154 -20.21728,100.9202 0.0949,19.0183 3.46869,37.0389 14.82238,53.1091 4.7157,6.6746 11.32587,10.8056 17.31678,15.6918 4.03704,3.2927 8.776,-0.207 8.8222,-5.8009 0.0769,-9.3043 -0.70331,-18.7503 5.01526,-26.9999"
   id="path143" />
<path
   fill="none"
   opacity="1"
   stroke="#000000"
   stroke-linecap="round"
   stroke-linejoin="round"
   stroke-width="3"
   d="m 1316.5,866.5 c 17.119,29.59601 26.8232,61.77667 34.123,94.973 9.7775,44.464 14.4142,89.8933 25.8206,134.0415 6.6742,25.8322 15.1148,50.7829 32.0641,71.9793 13.375,16.7264 31.2502,25.3641 51.9802,29.0736 7.6441,1.368 15.2661,1.8487 23.0083,2.0681 7.9196,0.2246 14.7932,-3.1344 21.9614,-5.2773 13.1073,-3.9185 21.4634,-12.3547 22.0424,-26.8582"
   id="path145" />
<path
   fill="none"
   opacity="1"
   stroke="#000000"
   stroke-linecap="round"
   stroke-linejoin="round"
   stroke-width="3"
   d="m 744.5,864.5 c -18.897,32.2793 -28.7534,67.5683 -36.2798,103.9421 -5.7137,27.6133 -10.1451,55.4467 -15.3105,83.1343 -5.0143,26.8775 -10.3308,53.4739 -20.44516,78.9094 -11.92365,29.9853 -29.88733,54.3498 -63.00543,62.855 -14.70246,3.7759 -29.85236,5.6283 -44.95911,1.1592"
   id="path147" />



<path
   fill="none"
   opacity="1"
   stroke="#000000"
   stroke-linecap="round"
   stroke-linejoin="round"
   stroke-width="3"
   d="m 1318.5,647.5 c 5.071,19.73047 17.1774,34.60547 31.9117,48.09637 23.8197,21.80964 51.6766,39.28321 70.2633,66.78528 8.5789,12.69348 13.2818,26.36286 15.825,41.11835"
   id="path155" />
<path
   fill="none"
   opacity="1"
   stroke="#000000"
   stroke-linecap="round"
   stroke-linejoin="round"
   stroke-width="3"
   d="m 740.5,648.5 c 1.1263,5.93103 -2.6298,10.31366 -5.0723,14.96204 -9.8696,18.78393 -26.078,31.74939 -41.9129,45.0556 -19.72336,16.57367 -40.70676,31.93811 -54.95486,54.02106 -7.63733,11.83697 -13.41382,24.518 -14.05994,38.9613"
   id="path157" />
<path
   fill="none"
   opacity="1"
   stroke="#000000"
   stroke-linecap="round"
   stroke-linejoin="round"
   stroke-width="3"
   d="m 1473.5,717.5 c 2.6697,-16.28528 3.4597,-33.11475 7.665,-48.82196 3.6805,-13.74664 2.5935,-26.71686 2.4278,-40.1792 -0.2311,-18.7702 -5.195,-36.26892 -10.6054,-54.14636 -6.2859,-20.77063 -18.1108,-37.03681 -33.735,-50.56665 -10.1724,-8.80902 -19.9128,-18.18054 -30.6796,-26.38135 -22.5945,-17.20978 -46.4881,-14.98749 -71.0551,-5.85699 -3.3578,1.24786 -6.3733,3.39691 -10.0177,3.95251"
   id="path159" />

<path
   fill="none"
   opacity="1"
   stroke="#000000"
   stroke-linecap="round"
   stroke-linejoin="round"
   stroke-width="3"
   d="m 610.5,633.5 c -0.13953,23.32538 0.88385,46.51587 7.55444,71.22229 C 633.19788,691.06946 633.61401,673.29144 638.5,657.5"
   id="path163" />
<path
   fill="none"
   opacity="1"
   stroke="#000000"
   stroke-linecap="round"
   stroke-linejoin="round"
   stroke-width="3"
   d="m 702.5,498.5 c 3.7475,-7.26245 9.6819,-3.50281 15.002,-3.02191 3.3748,0.30505 7.2791,5.49994 10.0103,-2.34174 -13.1031,-8.60657 -28.484,-10.32928 -43.9992,-9.414 -13.60331,0.80243 -26.00572,5.82117 -36.03886,15.75165 -16.08282,15.91815 -36.1112,27.76471 -48.05621,47.97754 -13.00726,22.01007 -19.87952,45.71753 -21.96033,71.04498 -1.09491,13.32794 -0.92712,26.66321 -0.93145,40.00348 -6.8e-4,2.14368 -0.15442,4.10492 -2.02625,5.5"
   id="path165" />
<path
   fill="none"
   opacity="1"
   stroke="#000000"
   stroke-linecap="round"
   stroke-linejoin="round"
   stroke-width="3"
   d="m 734.5,569.5 c 2.6234,13.53375 -11.0681,28.53137 -29.0073,32.97064 -8.318,2.05847 -16.6624,4.12427 -24.92062,6.30274 C 670.1416,611.52484 661.13684,617.56805 654.5,626.5"
   id="path167" />
<path
   fill="none"
   opacity="1"
   stroke="#000000"
   stroke-linecap="round"
   stroke-linejoin="round"
   stroke-width="3"
   d="m 1324.5,572.5 c 4.4436,21.14801 19.5731,29.98901 38.9939,34.02924 8.9004,1.85162 17.7605,3.75763 26.0508,7.88092 6.8482,3.406 12.6477,7.77294 16.9553,14.08984"
   id="path169" />



<path
   fill="none"
   opacity="1"
   stroke="#000000"
   stroke-linecap="round"
   stroke-linejoin="round"
   stroke-width="3"
   d="m 1433.5,521.5 c -0.8024,7.54181 5.1798,12.17169 8.2228,17.88129 8.5801,16.09924 12.2217,33.37249 14.8944,51.10107 0.7898,5.24005 -4.2754,9.78485 -1.1172,15.01764"
   id="path177" />
<path
   fill="none"
   opacity="1"
   stroke="#000000"
   stroke-linecap="round"
   stroke-linejoin="round"
   stroke-width="3"
   d="m 674.5,544.5 c -20.77832,13.03192 -35.77704,30.53003 -40.82941,55.03516 -1.60571,7.78772 -4.14721,15.74456 -2.17059,23.96484"
   id="path179" />
<path
   fill="none"
   opacity="1"
   stroke="#000000"
   stroke-linecap="round"
   stroke-linejoin="round"
   stroke-width="3"
   d="m 627.5,519.5 c -1.53766,11.4602 -10.20544,19.53986 -14.13586,29.94873 C 606.99176,566.32483 602.4729,583.29071 605.5,601.5"
   id="path181" />

<path
   fill="none"
   opacity="1"
   stroke="#000000"
   stroke-linecap="round"
   stroke-linejoin="round"
   stroke-width="3"
   d="m 1429.5,621.5 c -0.7507,-19.44946 -5.7186,-37.50134 -18.0291,-52.97693 C 1404.29,559.49567 1396.5691,550.99414 1385.5,546.5"
   id="path185" />


<path
   fill="none"
   opacity="1"
   stroke="#000000"
   stroke-linecap="round"
   stroke-linejoin="round"
   stroke-width="3"
   d="m 1324.5,622.5 c 4.4279,12.42194 14.9197,19.35181 25.1276,25.79804 15.3254,9.67779 31.6491,17.77453 45.8724,29.20196"
   id="path191" />
<path
   fill="none"
   opacity="1"
   stroke="#000000"
   stroke-linecap="round"
   stroke-linejoin="round"
   stroke-width="3"
   d="m 736.5,619.5 c -6.349,16.63995 -20.8203,24.6488 -34.9919,33.01367 C 689.7064,659.47955 677.25842,665.50519 667.5,675.5"
   id="path193" />

<path
   fill="none"
   opacity="1"
   stroke="#000000"
   stroke-linecap="round"
   stroke-linejoin="round"
   stroke-width="3"
   d="m 580.5,735.5 c -0.65472,12.33398 1.17304,24.7099 -1.70398,37.06891 -0.93463,4.01495 -2.7818,6.40191 -5.72217,10.01654 C 568.2713,774.14923 572.17334,765.27667 569.5,757.5"
   id="path197" />
<path
   fill="none"
   opacity="1"
   stroke="#000000"
   stroke-linecap="round"
   stroke-linejoin="round"
   stroke-width="3"
   d="m 641.5,1139.5 c -2.43671,0.2559 -2.74634,1.6572 -3.11871,3.981 -3.48908,21.7734 -23.31311,38.4419 -50.86176,40.3075 -11.12817,0.7532 -22.12842,3.81 -30.22742,13.5384 -4.74585,5.7006 -9.44702,12.0436 -16.78558,15.1884 -9.70917,4.1606 -18.99945,1.5454 -27.97223,-2.0998 -13.15057,-5.3423 -21.99194,-16.6463 -33.10773,-24.8156 -7.13745,-5.2457 -15.56427,-8.7168 -21.90814,-15.1182 C 445.32056,1158.1735 444.76959,1151.3749 454.5,1136.5"
   id="path199" />
<path
   fill="none"
   opacity="1"
   stroke="#000000"
   stroke-linecap="round"
   stroke-linejoin="round"
   stroke-width="3"
   d="m 584.5,1149.5 c 1.39477,-4.6492 2.78955,-9.2982 4.16235,-13.874 -7.44964,-5.7783 -13.58667,-5.0673 -22.23541,0.7656 -10.31293,6.9553 -17.34918,17.5121 -27.81598,24.28 -2.00189,1.2945 -4.88299,1.3369 -6.11096,3.8284"
   id="path201" />
<path
   fill="none"
   opacity="1"
   stroke="#000000"
   stroke-linecap="round"
   stroke-linejoin="round"
   stroke-width="3"
   d="m 1593.5,1138.5 c -5.5956,2.9163 -8.9838,8.3389 -13.8721,12.1635 -10.4653,8.1879 -24.1211,6.552 -34.9715,12.1401 -15.6442,8.0565 -24.6071,-1.6464 -34.0507,-10.4174 -6.9927,-6.4945 -13.6084,-13.4441 -22.18,-17.7379 -4.2389,-2.1232 -9.2649,-4.7298 -13.924,-0.1466 -4.7982,4.72 -1.0835,8.9214 1.1325,12.9241 0.8117,1.4663 0.6644,2.7079 0.8658,4.0742"
   id="path203" />
<path
   fill="none"
   opacity="1"
   stroke="#000000"
   stroke-linecap="round"
   stroke-linejoin="round"
   stroke-width="3"
   d="m 661.5,514.5 c -18.91101,4.61365 -24.74438,20.60437 -30.90234,36.03894 -3.47315,8.70544 -6.32593,17.69586 -8.09766,26.96106"
   id="path205" />
<path
   fill="none"
   opacity="1"
   stroke="#000000"
   stroke-linecap="round"
   stroke-linejoin="round"
   stroke-width="3"
   d="m 1420.5,1139.5 c 3.911,24.4164 18.9938,38.5626 42.0594,44.7793 3.5496,0.9567 8.266,3.4591 11.9406,-0.7793"
   id="path207" />
<path
   fill="none"
   opacity="1"
   stroke="#000000"
   stroke-linecap="round"
   stroke-linejoin="round"
   stroke-width="3"
   d="m 1608.5,1063.5 c 5.4249,16.8134 7.9674,33.632 2.1451,51.0485 -2.269,6.7874 -7.1928,11.7398 -10.1451,17.9515"
   id="path209" />
<path
   fill="none"
   opacity="1"
   stroke="#000000"
   stroke-linecap="round"
   stroke-linejoin="round"
   stroke-width="3"
   d="m 1450.5,636.5 c -1.4504,22.5415 -0.6587,45.38415 -8.4095,69.63806 C 1427.9563,691.9469 1426.8326,675.03058 1422.5,659.5"
   id="path211" />
<path
   fill="none"
   opacity="1"
   stroke="#000000"
   stroke-linecap="round"
   stroke-linejoin="round"
   stroke-width="3"
   d="m 723.5,515.5 c -13.3535,-5.28021 -26.9938,-7.55328 -40.9822,-2.94611 -10.68632,3.5196 -19.38517,9.5279 -23.0178,20.94611"
   id="path213" />
<path
   fill="none"
   opacity="1"
   stroke="#000000"
   stroke-linecap="round"
   stroke-linejoin="round"
   stroke-width="3"
   d="m 452.5,1062.5 c -8.90527,24.0281 -9.82721,47.1169 8,68"
   id="path215" />

<path
   fill="none"
   opacity="1"
   stroke="#000000"
   stroke-linecap="round"
   stroke-linejoin="round"
   stroke-width="3"
   d="m 1606.5,1138.5 c 9.1606,14.004 8.2839,22.4829 -4.0358,33.9617 -8.9906,8.3769 -19.5935,15.6286 -30.3215,20.1998 -8.9418,3.8098 -19.1625,6.1433 -28.6993,9.6859 -7.5641,2.8099 -14.6718,6.0955 -20.9434,11.1526"
   id="path219" />
<path
   fill="none"
   opacity="1"
   stroke="#000000"
   stroke-linecap="round"
   stroke-linejoin="round"
   stroke-width="3"
   d="m 1400.5,514.5 c 20.6666,10.77777 28.1349,30.36072 33.9851,51.00421 1.0687,3.77124 1.6749,7.69519 4.0149,10.99579"
   id="path221" />
<path
   fill="none"
   opacity="1"
   stroke="#000000"
   stroke-linecap="round"
   stroke-linejoin="round"
   stroke-width="3"
   d="m 1400.5,532.5 c -9.8923,-18.04981 -31.2637,-26.09845 -52.9944,-18.98285 -3.2682,1.07013 -6.5111,2.12238 -10.0056,1.98285"
   id="path223" />
<path
   fill="none"
   opacity="1"
   stroke="#000000"
   stroke-linecap="round"
   stroke-linejoin="round"
   stroke-width="3"
   d="m 1326.5,535.5 c 4.6227,10.51575 12.9656,17.17957 23.0092,21.98077 12.3106,5.88495 24.8627,11.18805 37.9908,15.01923"
   id="path225" />
<path
   fill="none"
   opacity="1"
   stroke="#000000"
   stroke-linecap="round"
   stroke-linejoin="round"
   stroke-width="3"
   d="m 566.5,1156.5 c -8.88568,5.0446 -17.52576,10.8909 -28.01123,11.8813 -5.59808,0.5289 -4.93921,5.2666 -3.72253,6.9231 3.16766,4.3133 4.30389,10.4096 10.68731,12.3486 4.36426,1.3258 8.51373,3.7126 12.04645,6.847"
   id="path227" />


<path
   fill="none"
   opacity="1"
   stroke="#000000"
   stroke-linecap="round"
   stroke-linejoin="round"
   stroke-width="3"
   d="m 734.5,536.5 c -11.6509,16.29144 -29.3503,23.19836 -47.0574,29.84717 -4.5547,1.71014 -8.94895,3.41681 -12.9426,6.15283"
   id="path233" />


<path
   fill="none"
   opacity="1"
   stroke="#000000"
   stroke-linecap="round"
   stroke-linejoin="round"
   stroke-width="3"
   d="m 1316.5,699.5 c 0.5826,12.78534 8.6823,21.79236 16.1094,30.91089 5.7595,7.07117 11.3391,14.18719 15.8906,22.08911"
   id="path239" />

<path
   fill="none"
   opacity="1"
   stroke="#000000"
   stroke-linecap="round"
   stroke-linejoin="round"
   stroke-width="3"
   d="m 743.5,697.5 c -0.3707,12.5733 -7.6321,21.80957 -14.9973,31.0022 -6.3197,7.88769 -13.7559,15.01898 -17.0027,24.9978"
   id="path243" />
<path
   fill="none"
   opacity="1"
   stroke="#000000"
   stroke-linecap="round"
   stroke-linejoin="round"
   stroke-width="3"
   d="m 577.5,664.5 c 5.87152,4.59888 2.32074,11.40375 3.69855,17.07324 2.69366,11.08374 3.63476,22.59345 5.30145,33.92676"
   id="path245" />
<path
   fill="none"
   opacity="1"
   stroke="#000000"
   stroke-linecap="round"
   stroke-linejoin="round"
   stroke-width="3"
   d="m 1569.5,1195.5 c -10.5155,14.7896 -34.2434,23.4133 -49.015,18.0414 -8.4177,-3.0614 -13.1399,-9.5532 -16.985,-17.0414"
   id="path247" />
<path
   fill="none"
   opacity="1"
   stroke="#000000"
   stroke-linecap="round"
   stroke-linejoin="round"
   stroke-width="3"
   d="m 537.5,1212.5 c -13.97424,-10.6438 -29.60852,-17.3866 -47,-20"
   id="path249" />
<path
   fill="none"
   opacity="1"
   stroke="#000000"
   stroke-linecap="round"
   stroke-linejoin="round"
   stroke-width="3"
   d="m 1381.5,501.5 c -8.9341,-2.11469 -18.2112,-1.90216 -26.951,-0.65686 -12.4067,1.76776 -18.3136,12.01733 -23.1302,22.61999 -0.7339,1.61567 -1.0213,4.2677 -3.9188,4.03687"
   id="path251" />

<path
   fill="none"
   opacity="1"
   stroke="#000000"
   stroke-linecap="round"
   stroke-linejoin="round"
   stroke-width="3"
   d="m 1480.5,737.5 c 1.0231,12.98175 -1.9541,26.10132 1.7814,39.06299 0.8347,2.89618 3.2044,3.72424 4.0626,6.3706 7.375,-7.07666 2.8436,-15.7633 4.156,-23.43359"
   id="path255" />





<path
   fill="none"
   opacity="1"
   stroke="#000000"
   stroke-linecap="round"
   stroke-linejoin="round"
   stroke-width="3"
   d="m 615.5,1143.5 c -8.39752,14.5387 -18.5368,27.693 -31,39"
   id="path267" />
<path
   fill="none"
   opacity="1"
   stroke="#000000"
   stroke-linecap="round"
   stroke-linejoin="round"
   stroke-width="3"
   d="m 1590.5,1095.5 c -2.1056,8.4867 5.6565,14.715 5.136,23.0085 -0.3738,5.9567 3.5106,11.826 0.864,17.9915"
   id="path269" />

<path
   fill="none"
   opacity="1"
   stroke="#000000"
   stroke-linecap="round"
   stroke-linejoin="round"
   stroke-width="3"
   d="m 1444.5,1146.5 c 9.1959,9.0433 14.6133,21.005 23.8308,30.1702 6.7153,6.6771 13.5516,12.1112 23.1768,12.7086 2.5999,0.1612 3.4247,1.9563 4.9924,3.1212"
   id="path273" />


<path
   fill="none"
   opacity="1"
   stroke="#000000"
   stroke-linecap="round"
   stroke-linejoin="round"
   stroke-width="3"
   d="m 1493.5,1155.5 c 7.9064,10.0157 19.6304,12.1416 31,15"
   id="path279" />

<path
   fill="none"
   opacity="1"
   stroke="#000000"
   stroke-linecap="round"
   stroke-linejoin="round"
   stroke-width="3"
   d="m 1588.5,1104.5 c -3.858,11.1716 -3.4762,21.4952 6,30"
   id="path283" />

<path
   fill="none"
   opacity="1"
   stroke="#000000"
   stroke-linecap="round"
   stroke-linejoin="round"
   stroke-width="3"
   d="m 534.5,1132.5 c -5.86011,11.0448 -15.52283,18.4332 -25,26"
   id="path287" />

<path
   fill="none"
   opacity="1"
   stroke="#000000"
   stroke-linecap="round"
   stroke-linejoin="round"
   stroke-width="3"
   d="m 470.5,1095.5 c -2.53363,2.6666 -0.88403,6.2899 0.21649,7.8469 7.98132,11.292 2.21784,20.19 -4.21649,29.1531"
   id="path291" />
<path
   fill="none"
   opacity="1"
   stroke="#000000"
   stroke-linecap="round"
   stroke-linejoin="round"
   stroke-width="3"
   d="m 693.5,530.5 c 7.3072,-0.90881 14.5328,-3.6098 22.3831,-0.58844 -6.126,11.28162 -18.3982,13.83392 -28.3831,19.58844"
   id="path293" />
<path
   fill="none"
   opacity="1"
   stroke="#000000"
   stroke-linecap="round"
   stroke-linejoin="round"
   stroke-width="3"
   d="m 468.5,1138.5 c 12.70306,15.8312 31.91028,18.0681 49.34711,24.4198 5.55603,2.0239 12.52606,-1.6179 16.65289,4.5802"
   id="path295" />
<path
   fill="none"
   opacity="1"
   stroke="#000000"
   stroke-linecap="round"
   stroke-linejoin="round"
   stroke-width="3"
   d="m 1357.5,494.5 c -10.4685,1.008 -20.5831,3.04224 -29,10"
   id="path297" />
<path
   fill="none"
   opacity="1"
   stroke="#000000"
   stroke-linecap="round"
   stroke-linejoin="round"
   stroke-width="3"
   d="m 734.5,597.5 c -2.3723,12.98053 -6.1708,25.24799 -17,34"
   id="path299" />
<path
   fill="none"
   opacity="1"
   stroke="#000000"
   stroke-linecap="round"
   stroke-linejoin="round"
   stroke-width="3"
   d="m 1323.5,600.5 c 1.5107,0.76337 3.9382,0.41467 3.9857,3.00024 0.2223,12.08857 8.6948,20.30439 14.0143,29.99976"
   id="path301" />

<path
   fill="none"
   opacity="1"
   stroke="#000000"
   stroke-linecap="round"
   stroke-linejoin="round"
   stroke-width="3"
   d="m 1345.5,532.5 c 2.7491,5.3927 7.6846,7.66962 12.8801,10.24207 4.19,2.0744 9.2201,3.44091 12.1199,7.75793"
   id="path305" />

<path
   fill="none"
   opacity="1"
   stroke="#000000"
   stroke-linecap="round"
   stroke-linejoin="round"
   stroke-width="3"
   d="m 681.5,499.5 c 28.6251,-3.87201 37.5868,1.14654 50,28"
   id="path309" />
<path
   fill="none"
   opacity="1"
   stroke="#000000"
   stroke-linecap="round"
   stroke-linejoin="round"
   stroke-width="3"
   d="m 1526.5,1134.5 c 5.5901,9.0765 12.2413,17.0919 22,22"
   id="path311" />
<path
   fill="none"
   opacity="1"
   stroke="#000000"
   stroke-linecap="round"
   stroke-linejoin="round"
   stroke-width="3"
   d="m 1326.5,554.5 c 5.1091,9.39313 14.4019,14.96643 21,23"
   id="path313" />

<path
   fill="none"
   opacity="1"
   stroke="#000000"
   stroke-linecap="round"
   stroke-linejoin="round"
   stroke-width="3"
   d="m 739.5,635.5 c -5.2908,8.3103 -9.5919,17.56323 -20,21"
   id="path317" />

<path
   fill="none"
   opacity="1"
   stroke="#000000"
   stroke-linecap="round"
   stroke-linejoin="round"
   stroke-width="3"
   d="m 490.5,1132.5 c 3.23083,7.3936 5.08826,15.205 7,23"
   id="path321" />
<path
   fill="none"
   opacity="1"
   stroke="#000000"
   stroke-linecap="round"
   stroke-linejoin="round"
   stroke-width="3"
   d="m 1568.5,1133.5 c 1.0659,8.2607 -5.0304,14.9645 -5,23"
   id="path323" />
<path
   fill="none"
   opacity="1"
   stroke="#000000"
   stroke-linecap="round"
   stroke-linejoin="round"
   stroke-width="3"
   d="m 1320.5,638.5 c 6.3334,7 12.6666,14 19,21"
   id="path325" />

<path
   fill="none"
   opacity="1"
   stroke="#000000"
   stroke-linecap="round"
   stroke-linejoin="round"
   stroke-width="3"
   d="m 732.5,554.5 c -4.7067,8.62671 -12.1338,14.53284 -20,20"
   id="path329" />
<path
   fill="none"
   opacity="1"
   stroke="#000000"
   stroke-linecap="round"
   stroke-linejoin="round"
   stroke-width="3"
   d="m 1367.5,530.5 c -8.6666,0 -17.3334,0 -26,0"
   id="path331" />
<path
   fill="none"
   opacity="1"
   stroke="#000000"
   stroke-linecap="round"
   stroke-linejoin="round"
   stroke-width="3"
   d="m 538.5,1148.5 c -6.36755,4.7936 -13.03882,9.1198 -20,13"
   id="path333" />



<path
   fill="none"
   opacity="1"
   stroke="#000000"
   stroke-linecap="round"
   stroke-linejoin="round"
   stroke-width="3"
   d="m 1520.5,1148.5 c 5.4491,4.8263 11.8463,8.2306 18,12"
   id="path341" />







<path
   fill="none"
   opacity="1"
   stroke="#000000"
   stroke-linecap="round"
   stroke-linejoin="round"
   stroke-width="3"
   d="m 1344.5,616.5 c -4.411,-4.46991 -9.5518,-7.94452 -15,-11"
   id="path357" />
<path
   fill="none"
   opacity="1"
   stroke="#000000"
   stroke-linecap="round"
   stroke-linejoin="round"
   stroke-width="3"
   d="m 731.5,603.5 c -5.9551,2.36426 -9.475,8.04926 -15,11"
   id="path359" />













</svg>
