<?xml version="1.0" encoding="UTF-8" standalone="no"?>
<svg
   version="1.1"
   id="Layer_1"
   x="0px"
   y="0px"
   width="1961"
   viewBox="0 0 1961 1807.5"
   enable-background="new 0 0 2732 2048"
   xml:space="preserve"
   sodipodi:docname="IMG_0909.svg"
   height="1807.5"
   inkscape:export-filename="../../stoff/Data/PreviewPictures/Breit/Sleeves/ruffles.svg"
   inkscape:export-xdpi="96"
   inkscape:export-ydpi="96"
   xmlns:inkscape="http://www.inkscape.org/namespaces/inkscape"
   xmlns:sodipodi="http://sodipodi.sourceforge.net/DTD/sodipodi-0.dtd"
   xmlns="http://www.w3.org/2000/svg"
   xmlns:svg="http://www.w3.org/2000/svg"><defs
   id="defs2370" /><sodipodi:namedview
   id="namedview2368"
   pagecolor="#ffffff"
   bordercolor="#000000"
   borderopacity="0.25"
   inkscape:showpageshadow="2"
   inkscape:pageopacity="0.0"
   inkscape:pagecheckerboard="0"
   inkscape:deskcolor="#d1d1d1"
   showgrid="false"
   showguides="false" />
<path
   fill="none"
   opacity="1"
   stroke="#000000"
   stroke-linecap="round"
   stroke-linejoin="round"
   stroke-width="3"
   d="m 1815.5,110.5 c -604.6666,0 -1209.33331,0 -1814,0"
   id="path2181" />
<path
   fill="none"
   opacity="1"
   stroke="#000000"
   stroke-linecap="round"
   stroke-linejoin="round"
   stroke-width="3"
   d="m 1959.5,1674.5 c -609,0 -1218,0 -1827,0.027 -3.67728,10e-5 -7.45636,-0.7137 -11,0.9731"
   id="path2183" />
<path
   fill="none"
   opacity="1"
   stroke="#000000"
   stroke-linecap="round"
   stroke-linejoin="round"
   stroke-width="3"
   d="m 128.5,1.5 c 0,522.66669 0,1045.3334 0,1568"
   id="path2185" />
<path
   fill="none"
   opacity="1"
   stroke="#000000"
   stroke-linecap="round"
   stroke-linejoin="round"
   stroke-width="4"
   d="m 1796.5,315.5 c -1.6025,3.20642 -0.9775,6.65125 -0.9778,10 -0.023,490 -0.023,980 -2e-4,1470 2e-4,3.3488 -0.6245,6.7936 0.978,10"
   id="path2187" />



<path
   fill="none"
   opacity="1"
   stroke="#000000"
   stroke-linecap="round"
   stroke-linejoin="round"
   stroke-width="3"
   d="m 1344.5,553.5 c 5.8938,-4.5936 7.2543,-9.5049 4.2727,-17.1069 -4.7714,-12.1656 -5.4355,-24.4971 3.4634,-36.0956 2.4492,-3.1923 2.9889,-8.6373 4.6365,-12.6443 3.7996,-9.2415 3.4387,-15.22589 -2.5762,-20.68979 -5.7798,1.5534 -7.5996,5.99989 -7.8134,9.53559 -0.4643,7.6828 3.9127,12.28324 0.5212,19.74864 -0.5489,1.2084 -3.897,7.66104 -5.6622,8.36194 -15.3546,6.0977 -4.9408,16.33182 -3.7458,25.87832 1.4376,11.485 7.3357,22.0631 6.9659,34.0141 -0.2945,9.5228 -0.049,9.5303 -8.2258,17.1506 -6.6774,-0.9343 -10.572,-7.2815 -18.7712,-8.312 -4.8962,3.7221 -0.9186,12.65526 0.028,21.19404"
   id="path2195"
   sodipodi:nodetypes="cssccsscssccc" />
<path
   fill="none"
   opacity="1"
   stroke="#000000"
   stroke-linecap="round"
   stroke-linejoin="round"
   stroke-width="3"
   d="m 597.5,547.5 c 7.2613,-12.3513 8.7389,-26.1937 9.6583,-40.0227 0.1035,-1.556 1.1723,-6.1469 -2.6707,-6.9153 -9.7644,-1.9526 -7.8259,-9.5217 -7.9625,-16.0625 -0.1559,-7.461 0.8412,-15.057 -3.45247,-21.7138 -8.79657,5.8813 -10.48559,10.2694 -7.59845,19.7222 2.02204,6.6203 5.02661,12.7885 7.97504,19.0161 3.52028,7.4356 8.66171,11.14556 8.09637,20.23194 -0.96439,15.50014 -8.01763,19.19784 -4.25969,26.95526 2.01143,4.15215 1.3414,9.1556 1.0862,13.7817 -0.3471,6.2916 0.7408,11.3673 7.1917,14.032 7.4893,0.2053 11.3247,-8.3939 19.5992,-8.1393 3.6537,11.4478 1.9057,23.2925 -1.0678,34.002 -5.2816,19.0221 -7.6362,37.7782 -3.4776,57.0871 0.9117,4.2331 2.03465,11.3995 8.74545,12.2805"
   id="path2197"
   sodipodi:nodetypes="cscscsssssccssc" />



<path
   fill="none"
   opacity="1"
   stroke="#000000"
   stroke-linecap="round"
   stroke-linejoin="round"
   stroke-width="3"
   d="m 1354.3045,466.59011 c -17.8013,-7.11072 -36.0534,-6.46169 -52.7803,3.94871 -6.0732,3.77984 -11.5207,1.52606 -17.0154,-1.05756 -7.5485,-3.54944 -14.9419,-5.17694 -22.0088,1.01874"
   id="path2205"
   sodipodi:nodetypes="cssc" />

<path
   fill="none"
   opacity="1"
   stroke="#000000"
   stroke-linecap="round"
   stroke-linejoin="round"
   stroke-width="3"
   d="m 1306.5,675.5 c 3,1.93915 6,0.64001 8.7595,-0.0402 2.7382,-5.41107 0.324,-11.33887 2.0618,-17.01453 1.2728,-4.15735 -2.8484,-5.99585 -5.8184,-7.94983 -10.3617,-6.81677 -22.1104,-9.89868 -33.9389,-7.65771 -12.1137,2.29492 -24.068,0.92285 -36.064,1.66223"
   id="path2209" />

<path
   fill="none"
   opacity="1"
   stroke="#000000"
   stroke-linecap="round"
   stroke-linejoin="round"
   stroke-width="3"
   d="m 701.5,639.5 c -15.7484,3.50696 -31.2583,-2.97266 -47.015,-1.12872 -4.0741,0.4768 -8.045,0.6391 -12.0111,2.05572 -14.0944,5.034 -17.2717,10.54157 -13.9894,25.07648 0.4459,1.97461 0.6823,3.99652 1.0154,5.99542 2.888,0.21918 5.5575,-0.43597 8.0001,-1.9989"
   id="path2213" />
<path
   fill="none"
   opacity="1"
   stroke="#000000"
   stroke-linecap="round"
   stroke-linejoin="round"
   stroke-width="3"
   d="m 683.5,465.5 c -7.8376,-4.22955 -15.9021,-5.04645 -23.9763,-0.95325 -6.9856,3.54126 -12.9643,2.94055 -20.156,-0.79193 C 624.27844,455.92334 608.31476,455.87366 592.5,462.5"
   id="path2215" />






<path
   fill="none"
   opacity="1"
   stroke="#000000"
   stroke-linecap="round"
   stroke-linejoin="round"
   stroke-width="3"
   d="m 669.5,618.5 c 3.9133,-0.68988 7.8115,1.21796 10.8087,2.46112 4.4672,1.85297 8.3649,2.60858 9.8628,-1.57861 1.5167,-4.23987 0.828,-8.64984 -5.5415,-11.20642 -8.3486,-3.3509 -14.9038,0.42981 -22.1385,2.29089 -0.9379,0.24127 -1.9915,0.033 -2.9915,0.033"
   id="path2229" />
<path
   fill="none"
   opacity="1"
   stroke="#000000"
   stroke-linecap="round"
   stroke-linejoin="round"
   stroke-width="3"
   d="m 1283.5,615.5 c -5.9482,-3.43921 -12.5021,-2.8905 -18.9982,-3.06714 -4.0649,-0.11047 -7.7567,1.48987 -9.6841,4.2862 -1.0872,1.57763 -4.3043,4.26153 -1.483,7.90881 1.9959,2.58038 3.8296,3.24374 5.9083,3.69662 6.0073,1.30884 10.6036,-5.77151 16.257,-5.82449"
   id="path2231"
   sodipodi:nodetypes="cssssc" />

<path
   fill="none"
   opacity="1"
   stroke="#000000"
   stroke-linecap="round"
   stroke-linejoin="round"
   stroke-width="3"
   d="m 1331.1773,583.64835 c -5.1916,7.75922 -0.2134,30.54725 -7.4207,36.17985 -2.4749,1.9341 -1.1969,7.4742 -0.4594,11.7071 2.7215,15.618 0.8313,29.57286 -7.3069,43.66986"
   id="path2235"
   sodipodi:nodetypes="cscc" />


<path
   fill="none"
   opacity="1"
   stroke="#000000"
   stroke-linecap="round"
   stroke-linejoin="round"
   stroke-width="3"
   d="m 1316.5724,658.7989 c -11.594,7.97113 -8.3566,11.67328 -12.6546,23.61847 -1.1858,3.29565 -4.1641,27.87947 -11.9006,21.78606 -6.1803,-5.60132 -3.9573,-12.51044 -9.7167,-15.74732 -6.749,4.50147 -15.8726,10.60859 -19.9682,17.95032 -3.002,5.38117 -8.848,7.73407 -14.8323,9.09357"
   id="path2241"
   sodipodi:nodetypes="csccsc" />


<path
   fill="none"
   opacity="1"
   stroke="#000000"
   stroke-linecap="round"
   stroke-linejoin="round"
   stroke-width="3"
   d="m 628.5,655.5 c 13.5927,11.53705 16.8796,28.22687 21.7939,44.46228 6.2293,-3.55981 7.903,-10.69611 13.3741,-14.42407 7.9721,1.87683 13.372,8.09472 17.4549,14.21338 3.6237,5.43029 8.3423,7.9107 13.3771,10.74841"
   id="path2247" />







<path
   fill="none"
   opacity="1"
   stroke="#000000"
   stroke-linecap="round"
   stroke-linejoin="round"
   stroke-width="3"
   d="m 1322.5,498.5 c -10.2983,8.0874 -21.7808,13.21478 -35,14"
   id="path2263" />
<path
   fill="none"
   opacity="1"
   stroke="#000000"
   stroke-linecap="round"
   stroke-linejoin="round"
   stroke-width="3"
   d="m 1339.5,505.5 c -6.0388,-2.76288 -11.2489,-0.71075 -15.9755,3.03101 -5.9203,4.68658 -11.627,9.6538 -19.0245,11.96899"
   id="path2265" />
<path
   fill="none"
   opacity="1"
   stroke="#000000"
   stroke-linecap="round"
   stroke-linejoin="round"
   stroke-width="3"
   d="m 641.5,515.5 c -7.6434,-1.40375 -10.94641,-4.02308 -16.96421,-8.58704 C 620.42538,503.79565 613.7842,499.90018 606.5,500.5"
   id="path2267"
   sodipodi:nodetypes="csc" />

<path
   fill="none"
   opacity="1"
   stroke="#000000"
   stroke-linecap="round"
   stroke-linejoin="round"
   stroke-width="3"
   d="m 622.5,494.5 c 10.0439,7.79797 22.0721,10.77722 34,14"
   id="path2271" />
<path
   fill="none"
   opacity="1"
   stroke="#000000"
   stroke-linecap="round"
   stroke-linejoin="round"
   stroke-width="3"
   d="m 1275.5,598.5 c -12.7114,0.63794 -23.6239,5.11346 -32,15"
   id="path2273" />

<path
   fill="none"
   opacity="1"
   stroke="#000000"
   stroke-linecap="round"
   stroke-linejoin="round"
   stroke-width="3"
   d="m 1316.5,574.5 c -9.506,6.30627 -20.3519,9.41711 -31,13"
   id="path2277" />


<path
   fill="none"
   opacity="1"
   stroke="#000000"
   stroke-linecap="round"
   stroke-linejoin="round"
   stroke-width="3"
   d="m 670.5,592.5 c 11.3224,2.95599 22.1821,6.86804 31,15"
   id="path2283" />
<path
   fill="none"
   opacity="1"
   stroke="#000000"
   stroke-linecap="round"
   stroke-linejoin="round"
   stroke-width="3"
   d="m 1336.7541,581.56555 c -12.7975,5.38538 -21.4445,6.60035 -18.5074,20.98625 1.1743,5.7519 1.7361,15.46219 4.0895,20.88879"
   id="path2285"
   sodipodi:nodetypes="csc" />
<path
   fill="none"
   opacity="1"
   stroke="#000000"
   stroke-linecap="round"
   stroke-linejoin="round"
   stroke-width="3"
   d="m 656.5,582.5 c -9.6667,-4 -21.69451,-10.08545 -31.36121,-14.08545"
   id="path2287"
   sodipodi:nodetypes="cc" />

<path
   fill="none"
   opacity="1"
   stroke="#000000"
   stroke-linecap="round"
   stroke-linejoin="round"
   stroke-width="3"
   d="m 687.5,503.5 c -7.9694,5.31482 -15.686,11.22705 -26,11"
   id="path2291" />



<path
   fill="none"
   opacity="1"
   stroke="#000000"
   stroke-linecap="round"
   stroke-linejoin="round"
   stroke-width="3"
   d="m 1258.5,508.5 c 5.339,5.98865 11.854,9.60754 19.9993,10.01514 1.811,0.0906 2.8066,1.17889 3.0007,2.98486"
   id="path2299" />
<path
   fill="none"
   opacity="1"
   stroke="#000000"
   stroke-linecap="round"
   stroke-linejoin="round"
   stroke-width="3"
   d="M 1282.8933,688.89082 1257.5,682.5001"
   id="path2301"
   sodipodi:nodetypes="cc" />
<path
   fill="none"
   opacity="1"
   stroke="#000000"
   stroke-linecap="round"
   stroke-linejoin="round"
   stroke-width="3"
   d="m 675.5,693.5 c -7.9039,2.6628 -15.37392,4.46193 -23.57012,6.12273"
   id="path2303"
   sodipodi:nodetypes="cc" />
<path
   fill="none"
   opacity="1"
   stroke="#000000"
   stroke-linecap="round"
   stroke-linejoin="round"
   stroke-width="3"
   d="m 1268.8941,699.38361 c 7.2743,3.5042 16.6594,6.58726 25.0328,5.87786"
   id="path2305"
   sodipodi:nodetypes="cc" />
<path
   fill="none"
   opacity="1"
   stroke="#000000"
   stroke-linecap="round"
   stroke-linejoin="round"
   stroke-width="3"
   d="m 684.5,676.5 c -6.686,4.4469 -14.81059,5.05766 -21.49659,9.50456"
   id="path2307"
   sodipodi:nodetypes="cc" />

<path
   fill="none"
   opacity="1"
   stroke="#000000"
   stroke-linecap="round"
   stroke-linejoin="round"
   stroke-width="3"
   d="m 1281.5,497.5 c -6.6666,-3.95563 -13.3334,3.95563 -20,0"
   id="path2311" />



<path
   fill="none"
   opacity="1"
   stroke="#000000"
   stroke-linecap="round"
   stroke-linejoin="round"
   stroke-width="3"
   d="m 681.5,492.5 c -6,0 -12,0 -18,0"
   id="path2319" />


<path
   fill="none"
   opacity="1"
   stroke="#000000"
   stroke-linecap="round"
   stroke-linejoin="round"
   stroke-width="3"
   d="m 613.5,582.5 c 0.33331,9.33331 0.23669,18.71857 1.35162,27.95758 0.23151,1.91852 0.41378,7.40535 5.67538,5.98903"
   id="path2325"
   sodipodi:nodetypes="csc" />










<path
   fill="none"
   opacity="1"
   stroke="#000000"
   stroke-linecap="round"
   stroke-linejoin="round"
   stroke-width="3"
   d="m 604.12834,575.93036 c 6.56805,5.82526 14.80407,6.75245 22.76904,8.56153"
   id="path2347"
   sodipodi:nodetypes="cc" />









</svg>
