<?xml version="1.0" encoding="UTF-8" standalone="no"?>
<svg
   version="1.1"
   id="Layer_1"
   x="0px"
   y="0px"
   width="2095"
   viewBox="0 0 2095 1931"
   enable-background="new 0 0 2732 2048"
   xml:space="preserve"
   sodipodi:docname="IMG_0894.svg"
   height="1931"
   xmlns:inkscape="http://www.inkscape.org/namespaces/inkscape"
   xmlns:sodipodi="http://sodipodi.sourceforge.net/DTD/sodipodi-0.dtd"
   xmlns="http://www.w3.org/2000/svg"
   xmlns:svg="http://www.w3.org/2000/svg"><defs
   id="defs727" /><sodipodi:namedview
   id="namedview725"
   pagecolor="#ffffff"
   bordercolor="#000000"
   borderopacity="0.25"
   inkscape:showpageshadow="2"
   inkscape:pageopacity="0.0"
   inkscape:pagecheckerboard="0"
   inkscape:deskcolor="#d1d1d1"
   showgrid="false" />
<path
   fill="none"
   opacity="1"
   stroke="#000000"
   stroke-linecap="round"
   stroke-linejoin="round"
   stroke-width="3"
   d="m 1341.5,499.5 c -0.5605,39.38019 -2.7445,78.70544 -5.2319,117.98529 -1.6681,26.34314 -3.1204,52.77899 -6.0972,78.97729 -3.6327,31.96869 -6.6023,63.86158 -5.6371,96.03638 0.4819,16.06061 5.4297,31.74848 3.9923,48.00336 -2.2656,25.61902 -3.1932,51.35754 -1.836,76.98761 3.0879,58.30747 4.5317,116.62767 5.1118,175.00697 0.1786,17.9864 0.1026,36.0093 0.7132,54.0026 2.397,70.6471 4.6121,141.2949 4.1006,212.0014 -0.05,6.8562 -1.3014,9.7679 -8.9703,12.4196 -37.86,13.0911 -76.3565,24.2163 -115.2681,33.0385 -35.7236,8.0995 -71.9678,14.6357 -108.8581,16.8589 -22.0109,1.3264 -43.9818,3.0943 -66.0172,2.5935 -36.8245,-0.8368 -73.5105,-2.7111 -110.0428,-8.661 -54.9413,-8.948 -109.3141,-19.7423 -162.049,-37.9906 -4.2189,-1.46 -7.8934,-4.2473 -12.8809,-4.6359 -4.0925,-0.3187 -6.2642,-4.2607 -6.2118,-9.6257 0.351,-35.9966 -0.7694,-72.0291 0.3969,-107.9912 1.9348,-59.6612 3.6229,-119.3064 3.9788,-179.0059 0.1868,-31.3268 0.6536,-62.7106 2.1629,-93.9839 1.3674,-28.3337 2.471,-56.6827 3.4702,-85.0233 0.7753,-21.9867 -2.0482,-43.94959 -2.1962,-65.9914 -0.058,-8.58746 1.8606,-16.71051 2.751,-24.96136 2.2083,-20.4585 1.4526,-40.61627 0.013,-61.06891 -1.2442,-17.68305 -3.1021,-35.31928 -4.6889,-52.94574 -1.9507,-21.6684 -2.5705,-43.4408 -5.4646,-65.05878 -1.4527,-10.85113 -1.3535,-22.00189 -1.8936,-32.9848 C 743.3413,562.8493 741.3483,532.20422 741.5,501.5"
   id="path606" />


























































</svg>
