<?xml version="1.0" encoding="UTF-8" standalone="no"?>
<svg
   version="1.1"
   id="Layer_1"
   x="0px"
   y="0px"
   width="2067"
   viewBox="0 0 2067 1903"
   enable-background="new 0 0 2732 2048"
   xml:space="preserve"
   sodipodi:docname="one_waistline_cut.svg"
   height="1903"
   xmlns:inkscape="http://www.inkscape.org/namespaces/inkscape"
   xmlns:sodipodi="http://sodipodi.sourceforge.net/DTD/sodipodi-0.dtd"
   xmlns="http://www.w3.org/2000/svg"
   xmlns:svg="http://www.w3.org/2000/svg"><defs
   id="defs65" /><sodipodi:namedview
   id="namedview65"
   pagecolor="#505050"
   bordercolor="#ffffff"
   borderopacity="1"
   inkscape:showpageshadow="0"
   inkscape:pageopacity="0"
   inkscape:pagecheckerboard="1"
   inkscape:deskcolor="#d1d1d1"
   showgrid="false" />





<path
   fill="none"
   opacity="1"
   stroke="#000000"
   stroke-linecap="round"
   stroke-linejoin="round"
   stroke-width="3"
   d="m 1189.5,837.5 c -2.7792,5.66669 -0.077,11.37335 0.1594,16.99329 1.225,29.07605 2.6942,58.08874 6.4414,87.05835 3.1946,24.69656 6.3192,49.41116 10.5735,73.91806 6.3275,36.4501 13.782,72.7055 20.8394,109.0276 5.7607,29.6489 11.52,59.2971 17.1621,88.9693 5.8042,30.5236 10.675,61.2506 13.259,92.0808 1.8532,22.1104 5.1898,44.5601 1.5652,66.9526"
   id="path6" />
<path
   fill="none"
   opacity="1"
   stroke="#000000"
   stroke-linecap="round"
   stroke-linejoin="round"
   stroke-width="3"
   d="m 868.5,825.5 c 1.2587,25.46973 -0.8881,50.87183 -4.3336,75.95416 -4.2931,31.25232 -10.4303,62.22914 -17.2371,93.14034 -14.9724,67.9927 -35.7384,134.4175 -52.125,201.9794 -8.0495,33.1883 -15.3812,66.6428 -18.6225,100.8959 -1.8326,19.3661 -2.6248,38.6481 -2.6818,58.0302"
   id="path7" />


























































</svg>
