<?xml version="1.0" encoding="UTF-8" standalone="no"?>
<svg
   version="1.1"
   id="Layer_1"
   x="0px"
   y="0px"
   width="2101.5"
   viewBox="0 0 2101.5 1935"
   enable-background="new 0 0 2732 2048"
   xml:space="preserve"
   sodipodi:docname="file(5).svg"
   height="1935"
   xmlns:inkscape="http://www.inkscape.org/namespaces/inkscape"
   xmlns:sodipodi="http://sodipodi.sourceforge.net/DTD/sodipodi-0.dtd"
   xmlns="http://www.w3.org/2000/svg"
   xmlns:svg="http://www.w3.org/2000/svg"><defs
   id="defs952" /><sodipodi:namedview
   id="namedview950"
   pagecolor="#ffffff"
   bordercolor="#000000"
   borderopacity="0.25"
   inkscape:showpageshadow="2"
   inkscape:pageopacity="0.0"
   inkscape:pagecheckerboard="0"
   inkscape:deskcolor="#d1d1d1"
   showgrid="false" />




<path
   fill="none"
   opacity="1"
   stroke="#000000"
   stroke-linecap="round"
   stroke-linejoin="round"
   stroke-width="3"
   d="m 888.5,437.5 c 0.5593,35.78021 7.9069,70.19525 22.1107,102.95203 13.5983,31.36004 32.7064,58.98394 60.9851,78.91204 25.3532,17.86658 53.3953,24.87207 84.9409,21.47748 48.828,-5.25433 80.7292,-33.16308 103.79,-73.44079 16.7752,-29.29938 26.4931,-61.13367 30.5073,-94.86103 1.1594,-9.7416 1.2458,-19.35608 1.666,-29.03973"
   id="path829" />



<path
   fill="none"
   opacity="1"
   stroke="#000000"
   stroke-linecap="round"
   stroke-linejoin="round"
   stroke-width="3"
   d="m 1342.5,500.5 c -41.8009,-20.90625 -84.0752,-40.62329 -130.0135,-50.93988 -4.9014,-1.10074 -9.7892,-2.87317 -14.9865,-2.06012"
   id="path837" />
<path
   fill="none"
   opacity="1"
   stroke="#000000"
   stroke-linecap="round"
   stroke-linejoin="round"
   stroke-width="3"
   d="m 883.5,446.5 c -21.2808,1.7211 -41.1436,8.68707 -61.0365,15.8992 -28.5787,10.36111 -55.932,23.34274 -82.9635,37.1008"
   id="path839" />






















































</svg>
