<?xml version="1.0" encoding="UTF-8" standalone="no"?>
<svg
   version="1.1"
   id="Layer_1"
   x="0px"
   y="0px"
   width="2101.5"
   viewBox="0 0 2101.5 1935"
   enable-background="new 0 0 2732 2048"
   xml:space="preserve"
   sodipodi:docname="file(3).svg"
   height="1935"
   xmlns:inkscape="http://www.inkscape.org/namespaces/inkscape"
   xmlns:sodipodi="http://sodipodi.sourceforge.net/DTD/sodipodi-0.dtd"
   xmlns="http://www.w3.org/2000/svg"
   xmlns:svg="http://www.w3.org/2000/svg"><defs
   id="defs541" /><sodipodi:namedview
   id="namedview539"
   pagecolor="#ffffff"
   bordercolor="#000000"
   borderopacity="0.25"
   inkscape:showpageshadow="2"
   inkscape:pageopacity="0.0"
   inkscape:pagecheckerboard="0"
   inkscape:deskcolor="#d1d1d1"
   showgrid="false" />




<path
   fill="none"
   opacity="1"
   stroke="#000000"
   stroke-linecap="round"
   stroke-linejoin="round"
   stroke-width="3"
   d="m 1208.5,441.5 c -5.1194,13.75018 -11.989,26.80365 -16.0294,40.99164 -6.5663,23.05762 -11.7055,46.4469 -15.7465,70.04675 -0.8623,5.03619 -3.7596,7.24085 -7.251,7.79175 -39.221,6.18829 -73.9226,23.38556 -106.7111,44.57526 -5.7044,3.68652 -8.5702,3.10095 -13.2825,0.63385 C 1025.4233,592.94513 1000.766,581.93683 974.554,574.31464 955.1395,568.66913 936.0125,562.34131 915.5,562.5"
   id="path418" />



<path
   fill="none"
   opacity="1"
   stroke="#000000"
   stroke-linecap="round"
   stroke-linejoin="round"
   stroke-width="3"
   d="m 916.5,555.5 c -4,-18 -7.8876,-36.02594 -12.0325,-53.99249 -3.974,-17.22583 -10.3885,-33.63208 -16.7699,-50.08417 -2.4953,-6.43323 -7.0029,-5.62057 -11.171,-4.78958 -30.1827,6.01782 -58.8885,16.58648 -87.0411,28.83285 C 772.5143,482.84906 756.0543,491.26593 739.5,499.5"
   id="path426" />

<path
   fill="none"
   opacity="1"
   stroke="#000000"
   stroke-linecap="round"
   stroke-linejoin="round"
   stroke-width="3"
   d="m 1208.5,447.5 c 11.2126,5.11111 23.4445,6.95035 35.0995,10.68988 20.4883,6.57361 40.2682,14.72494 59.8599,23.40192 13.2131,5.85193 26.0406,12.57483 39.0406,18.9082"
   id="path430" />





















































</svg>
