<?xml version="1.0" encoding="UTF-8" standalone="no"?>
<svg
   version="1.1"
   id="Layer_1"
   x="0px"
   y="0px"
   width="2101.5"
   viewBox="0 0 2101.5 1935"
   enable-background="new 0 0 2732 2048"
   xml:space="preserve"
   sodipodi:docname="file(8).svg"
   height="1935"
   xmlns:inkscape="http://www.inkscape.org/namespaces/inkscape"
   xmlns:sodipodi="http://sodipodi.sourceforge.net/DTD/sodipodi-0.dtd"
   xmlns="http://www.w3.org/2000/svg"
   xmlns:svg="http://www.w3.org/2000/svg"><defs
   id="defs59" /><sodipodi:namedview
   id="namedview59"
   pagecolor="#505050"
   bordercolor="#ffffff"
   borderopacity="1"
   inkscape:showpageshadow="0"
   inkscape:pageopacity="0"
   inkscape:pagecheckerboard="1"
   inkscape:deskcolor="#d1d1d1" />




<path
   fill="none"
   opacity="1"
   stroke="#000000"
   stroke-linecap="round"
   stroke-linejoin="round"
   stroke-width="3"
   d="m 1342.5,500.5 c -44.8823,-22.38007 -90.2333,-43.52231 -139.7294,-53.03049 -4.591,3.03479 -3.8348,8.14829 -4.0344,12.0426 -1.4623,28.54105 -10.8484,55.12687 -19.218,81.99357 -4.7669,15.30206 -9.8191,30.5429 -13.7394,46.06475 -1.2111,4.79542 -2.3019,6.167 -7.2319,7.16193 -21.5033,4.33978 -43.1016,7.31976 -65.0465,7.78632 -15.346,0.32623 -30.6353,2.79229 -45.9969,1.91851 -40.3059,-2.29266 -80.7121,-1.29412 -121.0085,-3.85839 -3.6515,-0.23236 -5.1137,-1.10981 -6.1567,-5.03583 -8.7488,-32.92969 -21.0254,-64.83582 -28.7802,-98.05652 C 888.036,482.39758 885.5455,467.11822 886.5,451.5"
   id="path5" />



<path
   fill="none"
   opacity="1"
   stroke="#000000"
   stroke-linecap="round"
   stroke-linejoin="round"
   stroke-width="3"
   d="m 883.5,446.5 c -21.2808,1.7211 -41.1436,8.68707 -61.0365,15.8992 -28.5787,10.36111 -55.932,23.34274 -82.9635,37.1008"
   id="path9" />


















































</svg>
