<?xml version="1.0" encoding="UTF-8" standalone="no"?>
<svg
   version="1.1"
   id="Layer_1"
   x="0px"
   y="0px"
   width="2101.5"
   viewBox="0 0 2101.5 1935"
   enable-background="new 0 0 2732 2048"
   xml:space="preserve"
   sodipodi:docname="file(11).svg"
   height="1935"
   inkscape:export-filename="Breit/Kragen/v_line.svg"
   inkscape:export-xdpi="96"
   inkscape:export-ydpi="96"
   xmlns:inkscape="http://www.inkscape.org/namespaces/inkscape"
   xmlns:sodipodi="http://sodipodi.sourceforge.net/DTD/sodipodi-0.dtd"
   xmlns="http://www.w3.org/2000/svg"
   xmlns:svg="http://www.w3.org/2000/svg"><defs
   id="defs62" /><sodipodi:namedview
   id="namedview62"
   pagecolor="#505050"
   bordercolor="#ffffff"
   borderopacity="1"
   inkscape:showpageshadow="0"
   inkscape:pageopacity="0"
   inkscape:pagecheckerboard="1"
   inkscape:deskcolor="#d1d1d1" />




<path
   fill="none"
   opacity="1"
   stroke="#000000"
   stroke-linecap="round"
   stroke-linejoin="round"
   stroke-width="3"
   d="m 1342.5,500.5 c -26.6748,-13.49988 -53.7979,-25.97907 -81.7578,-36.87701 -22.4862,41.47485 -52.4096,75.52325 -87.054,106.09039 -29.1367,25.70776 -60.0199,48.768 -93.2953,68.60699 -10.1856,6.07264 -20.1876,12.58881 -31.7103,16.69245 -5.4003,1.92321 -8.7634,1.64648 -13.196,-0.48481 -37.8893,-18.21789 -72.2146,-41.85022 -105.0733,-67.91876 -22.2906,-17.68438 -42.383,-37.64587 -61.7143,-58.29547 -15.8921,-16.97577 -30.1435,-35.50946 -40.2179,-56.80484 -1.5491,-3.27438 -2.8571,-6.7583 -6.1073,-9.07101 C 793.8339,472.59116 766.4987,485.66821 739.5,499.5"
   id="path5" />

























































</svg>
