<?xml version="1.0" encoding="UTF-8" standalone="no"?>
<svg
   version="1.1"
   id="Layer_1"
   x="0px"
   y="0px"
   width="2101.5"
   viewBox="0 0 2101.5 1935"
   enable-background="new 0 0 2732 2048"
   xml:space="preserve"
   sodipodi:docname="file(4).svg"
   height="1935"
   xmlns:inkscape="http://www.inkscape.org/namespaces/inkscape"
   xmlns:sodipodi="http://sodipodi.sourceforge.net/DTD/sodipodi-0.dtd"
   xmlns="http://www.w3.org/2000/svg"
   xmlns:svg="http://www.w3.org/2000/svg"><defs
   id="defs63" /><sodipodi:namedview
   id="namedview63"
   pagecolor="#505050"
   bordercolor="#ffffff"
   borderopacity="1"
   inkscape:showpageshadow="0"
   inkscape:pageopacity="0"
   inkscape:pagecheckerboard="1"
   inkscape:deskcolor="#d1d1d1" />




<path
   fill="none"
   opacity="1"
   stroke="#000000"
   stroke-linecap="round"
   stroke-linejoin="round"
   stroke-width="3"
   d="m 739.5,499.5 c 32.7821,-16.41113 65.701,-32.39121 100.9415,-43.19095 14.2155,-4.35651 28.4226,-8.32483 43.991,-10.53354 11.9943,16.22745 26.3237,31.45392 44.1578,42.57978 20.5699,12.83264 43.133,21.03948 66.8868,26.24908 22.8029,5.00104 45.8797,7.51587 69.0048,5.66913 40.9082,-3.26691 79.3903,-13.27734 109.13,-44.66742 8.2023,-8.65732 12.8802,-19.22623 18.8881,-29.10608"
   id="path5" />



<path
   fill="none"
   opacity="1"
   stroke="#000000"
   stroke-linecap="round"
   stroke-linejoin="round"
   stroke-width="3"
   d="m 1342.5,500.5 c -41.8009,-20.90625 -84.0752,-40.62329 -130.0135,-50.93988 -4.9014,-1.10074 -9.7892,-2.87317 -14.9865,-2.06012"
   id="path9" />






















































</svg>
