<?xml version="1.0" encoding="UTF-8" standalone="no"?>
<svg
   version="1.1"
   id="Layer_1"
   x="0px"
   y="0px"
   width="2067"
   viewBox="0 0 2067 1905.5"
   enable-background="new 0 0 2732 2048"
   xml:space="preserve"
   sodipodi:docname="IMG_0896.svg"
   height="1905.5"
   xmlns:inkscape="http://www.inkscape.org/namespaces/inkscape"
   xmlns:sodipodi="http://sodipodi.sourceforge.net/DTD/sodipodi-0.dtd"
   xmlns="http://www.w3.org/2000/svg"
   xmlns:svg="http://www.w3.org/2000/svg"><defs
   id="defs365" /><sodipodi:namedview
   id="namedview363"
   pagecolor="#ffffff"
   bordercolor="#000000"
   borderopacity="0.25"
   inkscape:showpageshadow="2"
   inkscape:pageopacity="0.0"
   inkscape:pagecheckerboard="0"
   inkscape:deskcolor="#d1d1d1"
   showgrid="false" />





<path
   fill="none"
   opacity="1"
   stroke="#000000"
   stroke-linecap="round"
   stroke-linejoin="round"
   stroke-width="3"
   d="m 859.5,870 c -0.7428,1.93176 -1.1252,3.87274 -1.037,6.00153 1.1066,26.70727 -1.1146,53.38727 -2.3754,79.97897 -4.3452,91.658 -4.3093,183.3486 -3.1716,275.0144 0.5377,43.3189 1.2121,86.771 5.3966,130.0233 0.7609,7.8636 1.3605,16.0585 -0.8126,23.9818"
   id="path252" />
<path
   fill="none"
   opacity="1"
   stroke="#000000"
   stroke-linecap="round"
   stroke-linejoin="round"
   stroke-width="3"
   d="m 1178.5,882 c 0.7805,37.66467 1.6851,75.3269 2.3444,112.994 0.7586,43.3445 1.1812,86.6947 0.4127,130.0017 -1.4433,81.3402 -0.1489,162.672 -0.7079,244.0047 -0.041,5.9974 0.6174,11.9996 0.9508,17.9996"
   id="path254" />





















































</svg>
