<?xml version="1.0" encoding="UTF-8" standalone="no"?>
<svg
   version="1.1"
   id="Layer_1"
   x="0px"
   y="0px"
   width="1969"
   viewBox="0 0 1969 1813.5"
   enable-background="new 0 0 2732 2048"
   xml:space="preserve"
   sodipodi:docname="double_waistline_dart.svg"
   height="1813.5"
   inkscape:version="1.2 (dc2aedaf03, 2022-05-15)"
   xmlns:inkscape="http://www.inkscape.org/namespaces/inkscape"
   xmlns:sodipodi="http://sodipodi.sourceforge.net/DTD/sodipodi-0.dtd"
   xmlns="http://www.w3.org/2000/svg"
   xmlns:svg="http://www.w3.org/2000/svg"><defs
   id="defs470" /><sodipodi:namedview
   id="namedview468"
   pagecolor="#ffffff"
   bordercolor="#000000"
   borderopacity="0.25"
   inkscape:showpageshadow="2"
   inkscape:pageopacity="0.0"
   inkscape:pagecheckerboard="0"
   inkscape:deskcolor="#d1d1d1"
   showgrid="false"
   inkscape:zoom="0.42480469"
   inkscape:cx="900.41379"
   inkscape:cy="853.33333"
   inkscape:window-width="1440"
   inkscape:window-height="2529"
   inkscape:window-x="245"
   inkscape:window-y="0"
   inkscape:window-maximized="1"
   inkscape:current-layer="Layer_1" />





<path
   fill="none"
   opacity="1"
   stroke="#000000"
   stroke-linecap="round"
   stroke-linejoin="round"
   stroke-width="3"
   d="m 1129.5,834 c -2.1831,11.9158 0.5199,24.1631 -2.2267,35.9471 -0.7316,3.1387 -0.6953,6.0751 -0.7029,9.053 -0.1045,40.6664 -1.3204,81.3897 0.5108,121.9737 0.794,17.6021 -0.8487,35.581 3.4188,53.0262"
   id="path349" />
<path
   fill="none"
   opacity="1"
   stroke="#000000"
   stroke-linecap="round"
   stroke-linejoin="round"
   stroke-width="3"
   d="m 818.5,830 c 4.6234,47.5746 4.5658,95.2977 3.8319,142.9974 -0.3745,24.3482 -2.4986,48.6692 -3.8319,73.0026"
   id="path351" />

<path
   fill="none"
   opacity="1"
   stroke="#000000"
   stroke-linecap="round"
   stroke-linejoin="round"
   stroke-width="3"
   d="m 766.5,848 c -0.582,25.6753 4.0079,50.7653 7.6964,76.0443 3.2239,22.095 5.3901,44.4478 4.4127,66.9605 C 778.017,1004.6456 778.5,1018.3334 778.5,1032"
   id="path355" />


<path
   fill="none"
   opacity="1"
   stroke="#000000"
   stroke-linecap="round"
   stroke-linejoin="round"
   stroke-width="3"
   d="m 1181.5,852 c -0.7428,1.9318 -1.1934,3.8692 -1.0273,6.0021 1.5564,20.0201 -3.0782,39.4774 -6.2459,58.9535 -2.7635,16.9924 -5.8312,33.8886 -8.1153,50.9925 -2.6844,20.099 -0.5448,40.0648 -1.5595,60.0546 -0.067,1.313 0.6146,2.664 0.9479,3.9973"
   id="path361" />




















































</svg>
