<?xml version="1.0" encoding="UTF-8" standalone="no"?>
<svg
   version="1.1"
   id="Layer_1"
   x="0px"
   y="0px"
   width="2057"
   viewBox="0 0 2057 1895"
   enable-background="new 0 0 2732 2048"
   xml:space="preserve"
   sodipodi:docname="IMG_0901.svg"
   height="1895"
   xmlns:inkscape="http://www.inkscape.org/namespaces/inkscape"
   xmlns:sodipodi="http://sodipodi.sourceforge.net/DTD/sodipodi-0.dtd"
   xmlns="http://www.w3.org/2000/svg"
   xmlns:svg="http://www.w3.org/2000/svg"><defs
   id="defs844" /><sodipodi:namedview
   id="namedview842"
   pagecolor="#ffffff"
   bordercolor="#000000"
   borderopacity="0.25"
   inkscape:showpageshadow="2"
   inkscape:pageopacity="0.0"
   inkscape:pagecheckerboard="0"
   inkscape:deskcolor="#d1d1d1"
   showgrid="false" />





<path
   fill="none"
   opacity="1"
   stroke="#000000"
   stroke-linecap="round"
   stroke-linejoin="round"
   stroke-width="3"
   d="m 1180.5,871.5 c -3.4719,37.9225 -4.6291,75.9581 -6.4318,113.9795 -2.167,45.7047 -2.0232,91.3807 -1.1888,137.0135 0.7922,43.34 2.2268,86.7137 5.1963,130.0361 1.6644,24.2827 3.0986,48.6543 4.8513,72.9401 0.8386,11.6187 0.072,23.6119 3.573,35.0308"
   id="path719" />
<path
   fill="none"
   opacity="1"
   stroke="#000000"
   stroke-linecap="round"
   stroke-linejoin="round"
   stroke-width="3"
   d="m 854.5,865.5 c 3.9635,37.5748 5.8781,75.2861 8.3308,112.9785 4.4028,67.6594 4.5109,135.3572 3.1976,203.0123 -0.6919,35.6423 -1.7511,71.409 -5.0804,107.0511 -1.2932,13.8446 -3.4255,27.9061 -2.344,41.95 0.4309,5.5983 -3.1672,10.4585 -2.104,16.0081"
   id="path721" />



























































</svg>
