<?xml version="1.0" encoding="UTF-8" standalone="no"?>
<svg
   version="1.1"
   id="Layer_1"
   x="0px"
   y="0px"
   width="2067"
   viewBox="0 0 2067 1903"
   enable-background="new 0 0 2732 2048"
   xml:space="preserve"
   sodipodi:docname="double_waistline_dart.svg"
   height="1903"
   xmlns:inkscape="http://www.inkscape.org/namespaces/inkscape"
   xmlns:sodipodi="http://sodipodi.sourceforge.net/DTD/sodipodi-0.dtd"
   xmlns="http://www.w3.org/2000/svg"
   xmlns:svg="http://www.w3.org/2000/svg"><defs
   id="defs67" /><sodipodi:namedview
   id="namedview67"
   pagecolor="#505050"
   bordercolor="#ffffff"
   borderopacity="1"
   inkscape:showpageshadow="0"
   inkscape:pageopacity="0"
   inkscape:pagecheckerboard="1"
   inkscape:deskcolor="#d1d1d1"
   showgrid="false" />





<path
   fill="none"
   opacity="1"
   stroke="#000000"
   stroke-linecap="round"
   stroke-linejoin="round"
   stroke-width="3"
   d="m 779.5,811.5 c 0.7821,9.02423 3.1111,17.85425 3.04,27.00031 -0.1372,17.66565 0.4421,35.3493 -0.1555,52.99578 -0.8518,25.16059 -4.4507,50.06647 -7.4486,75.05621 -2.6399,22.0059 -7.1949,43.7917 -8.2019,65.9583 -0.1549,3.4103 -3.1954,5.6276 -2.234,8.9894"
   id="path6" />
<path
   fill="none"
   opacity="1"
   stroke="#000000"
   stroke-linecap="round"
   stroke-linejoin="round"
   stroke-width="3"
   d="m 1185.5,825.5 c -2.7131,22.96551 -4.0515,45.78394 -1.4891,69.05383 1.6068,14.59143 2.9489,29.31586 4.6659,43.92542 1.8911,16.09115 5.9248,31.93925 7.632,48.04105 2.2172,20.9105 5.6619,41.8017 4.1912,62.9797"
   id="path7" />
<path
   fill="none"
   opacity="1"
   stroke="#000000"
   stroke-linecap="round"
   stroke-linejoin="round"
   stroke-width="3"
   d="m 853.4999,817.5 c 0.6667,11.66669 0.9319,23.37372 2.1011,34.98981 1.4852,14.75946 -0.7664,29.41394 -1.649,43.97699 -0.8049,13.28143 -2.9374,26.76172 -5.3163,40.05749 -2.9039,16.23121 -4.7348,32.65231 -7.1535,48.97301 -2.7526,18.5744 -3.9663,37.278 -4.9822,56.0027"
   id="path8" />
<path
   fill="none"
   opacity="1"
   stroke="#000000"
   stroke-linecap="round"
   stroke-linejoin="round"
   stroke-width="3"
   d="m 1243.5,813.5 c 2.025,14.62592 3.2086,29.36114 4.7087,44.02978 2.0572,20.1175 5.5251,40.00348 8.5651,59.92847 3.4857,22.8468 8.7416,45.44685 13.8324,68.01785 3.6982,16.3966 6.5549,33.0184 11.8938,49.0239"
   id="path9" />


























































</svg>
