<?xml version="1.0" encoding="UTF-8" standalone="no"?>
<svg
   version="1.1"
   id="Layer_1"
   x="0px"
   y="0px"
   width="2065"
   viewBox="0 0 2065 1903"
   enable-background="new 0 0 2732 2048"
   xml:space="preserve"
   sodipodi:docname="triple_shoulder_dart.svg"
   height="1903"
   xmlns:inkscape="http://www.inkscape.org/namespaces/inkscape"
   xmlns:sodipodi="http://sodipodi.sourceforge.net/DTD/sodipodi-0.dtd"
   xmlns="http://www.w3.org/2000/svg"
   xmlns:svg="http://www.w3.org/2000/svg"><defs
   id="defs70" /><sodipodi:namedview
   id="namedview70"
   pagecolor="#505050"
   bordercolor="#ffffff"
   borderopacity="1"
   inkscape:showpageshadow="0"
   inkscape:pageopacity="0"
   inkscape:pagecheckerboard="1"
   inkscape:deskcolor="#d1d1d1"
   showgrid="false" />





<path
   fill="none"
   opacity="1"
   stroke="#000000"
   stroke-linecap="round"
   stroke-linejoin="round"
   stroke-width="3"
   d="m 748.5,485.5 c 8,25 16.0424,49.98651 23.99,75.00317 11.9568,37.63642 22.9642,75.57862 31.6345,114.08136 2.8595,12.69782 5.9788,25.66883 6.3755,38.91547"
   id="path6" />
<path
   fill="none"
   opacity="1"
   stroke="#000000"
   stroke-linecap="round"
   stroke-linejoin="round"
   stroke-width="3"
   d="m 1302.5,486.5 c -11.9341,28.53381 -21.4148,57.97125 -31.9434,87.02051 -13.145,36.26806 -24.4077,73.08545 -32.2624,110.93676 -2.0059,9.66633 -4.735,19.1814 -5.7942,29.04273"
   id="path7" />

<path
   fill="none"
   opacity="1"
   stroke="#000000"
   stroke-linecap="round"
   stroke-linejoin="round"
   stroke-width="3"
   d="m 1266.5,469.5 c -10.7249,31.42993 -22.626,62.43756 -33.1475,93.95074 -11.2819,33.79169 -20.9837,68.14411 -34.7766,101.08106 -0.5937,1.41803 -0.076,3.30151 -0.076,4.9682"
   id="path9" />
<path
   fill="none"
   opacity="1"
   stroke="#000000"
   stroke-linecap="round"
   stroke-linejoin="round"
   stroke-width="3"
   d="m 772.5,470.5 c 9.0721,17.98358 15.1964,37.17261 21.7881,56.07391 C 810.6003,573.34875 825.8333,620.5 841.5,667.5"
   id="path10" />





<path
   fill="none"
   opacity="1"
   stroke="#000000"
   stroke-linecap="round"
   stroke-linejoin="round"
   stroke-width="3"
   d="m 803.5,461.5 c 18.0709,33.11652 28.4224,69.09082 39.1045,104.96887 2.2179,7.44916 3.9683,15.15619 7.8955,22.03113"
   id="path16" />
<path
   fill="none"
   opacity="1"
   stroke="#000000"
   stroke-linecap="round"
   stroke-linejoin="round"
   stroke-width="3"
   d="m 1248.5,464.5 c -27.3607,38.85583 -42.8491,83.32062 -60,127"
   id="path17" />





















































</svg>
