<?xml version="1.0" encoding="UTF-8" standalone="no"?>
<svg
   version="1.1"
   id="Layer_1"
   x="0px"
   y="0px"
   width="1969"
   viewBox="0 0 1969 1813.5"
   enable-background="new 0 0 2732 2048"
   xml:space="preserve"
   sodipodi:docname="IMG_0900.svg"
   height="1813.5"
   inkscape:version="1.2 (dc2aedaf03, 2022-05-15)"
   xmlns:inkscape="http://www.inkscape.org/namespaces/inkscape"
   xmlns:sodipodi="http://sodipodi.sourceforge.net/DTD/sodipodi-0.dtd"
   xmlns="http://www.w3.org/2000/svg"
   xmlns:svg="http://www.w3.org/2000/svg"><defs
   id="defs470" /><sodipodi:namedview
   id="namedview468"
   pagecolor="#ffffff"
   bordercolor="#000000"
   borderopacity="0.25"
   inkscape:showpageshadow="2"
   inkscape:pageopacity="0.0"
   inkscape:pagecheckerboard="0"
   inkscape:deskcolor="#d1d1d1"
   showgrid="false"
   inkscape:zoom="0.42480469"
   inkscape:cx="895.70575"
   inkscape:cy="850.97931"
   inkscape:window-width="1440"
   inkscape:window-height="2529"
   inkscape:window-x="245"
   inkscape:window-y="0"
   inkscape:window-maximized="1"
   inkscape:current-layer="Layer_1" />



<path
   fill="none"
   opacity="1"
   stroke="#000000"
   stroke-linecap="round"
   stroke-linejoin="round"
   stroke-width="3"
   d="m 696.5,468 c -0.432,26.31781 4.0881,52.09119 7.6656,78.04608 2.7541,19.98077 5.8085,39.9458 8.6735,59.90521 2.2013,15.3346 3.6936,30.67774 4.4826,46.05786 0.8791,17.13337 -1.1365,34.26233 -5.0163,50.94562 -2.5364,10.9065 -1.4018,21.20874 -0.2358,32.09137 1.2525,11.68946 2.4017,23.41175 4.5742,34.92676 3.1621,16.76013 6.3003,33.52576 10.1815,50.18427 3.6655,15.73236 6.5048,31.87403 9.6559,47.84653 3.4164,17.317 7.4493,34.563 9.7349,52.0334 1.3933,10.6503 3.3979,21.3071 4.0527,31.9771 1.1638,18.961 4.005,37.9781 2.0961,56.9723 -2.8289,28.1451 -5.8827,56.2049 -11.349,84.1146 -4.8842,24.9367 -10.4872,49.7746 -14.5902,74.8867 -2.9513,18.0625 -7.1769,35.9335 -9.6169,54.0538 -0.8858,6.5782 -1.901,13.288 -2.2252,19.9624 -0.8503,17.5061 -0.7806,17.7691 15.9353,23.945 39.0429,14.4249 79.0976,25.1838 119.9619,33.1496 26.5149,5.1687 53.0727,9.5252 79.9942,12.1575 16.6675,1.6296 33.2927,3.0109 50.0066,4.0424 14.0111,0.8647 27.9903,2.1179 42.0163,1.6391 26.0761,-0.8899 52.0617,-2.4866 78.0364,-5.6563 35.3186,-4.3099 69.7196,-11.6193 102.9641,-24.2856 8.6771,-3.3059 17.4472,-6.4006 25.9754,-10.0569 12.8035,-5.4893 14.8962,-9.3161 12.9752,-23.9321 -2.4568,-18.6942 -4.7949,-37.4266 -8.0894,-55.9818 -3.1418,-17.6956 -6.5327,-35.3666 -10.0672,-52.9833 -4.1424,-20.6454 -8.1473,-41.3008 -12.0461,-61.9937 -5.8057,-30.8133 -9.8496,-61.7751 -9.4862,-93.0448 0.2843,-24.4673 3.8669,-48.7494 7.3487,-73.0591 4.4345,-30.9615 11.6844,-61.3034 17.8072,-91.86063 4.145,-20.68591 8.4417,-41.40167 12.2272,-62.14849 2.1471,-11.7685 2.6465,-23.98066 4.3867,-35.93055 1.9472,-13.36895 -2.6992,-26.08575 -4.5336,-38.93243 -2.4004,-16.80853 -2.0141,-33.53082 -0.9842,-50.03998 0.8921,-14.29785 2.6319,-28.82031 5.4977,-43.02997 3.2743,-16.23578 5.0177,-32.73657 7.4913,-49.07745 1.842,-12.16876 3.4657,-24.55829 4.7947,-36.89264 1.2967,-12.03601 1.6131,-23.99988 1.7042,-36.03186"
   id="path345" />




























































</svg>
