<?xml version="1.0" encoding="UTF-8" standalone="no"?>
<svg
   version="1.1"
   id="Layer_1"
   x="0px"
   y="0px"
   width="2041.5"
   viewBox="0 0 2041.5 1881"
   enable-background="new 0 0 2732 2048"
   xml:space="preserve"
   sodipodi:docname="IMG_0889.svg"
   height="1881"
   xmlns:inkscape="http://www.inkscape.org/namespaces/inkscape"
   xmlns:sodipodi="http://sodipodi.sourceforge.net/DTD/sodipodi-0.dtd"
   xmlns="http://www.w3.org/2000/svg"
   xmlns:svg="http://www.w3.org/2000/svg"><defs
   id="defs131" /><sodipodi:namedview
   id="namedview129"
   pagecolor="#ffffff"
   bordercolor="#000000"
   borderopacity="0.25"
   inkscape:showpageshadow="2"
   inkscape:pageopacity="0.0"
   inkscape:pagecheckerboard="0"
   inkscape:deskcolor="#d1d1d1"
   showgrid="false" />
<path
   fill="none"
   opacity="1"
   stroke="#000000"
   stroke-linecap="round"
   stroke-linejoin="round"
   stroke-width="3"
   d="m 719.5,487.5 c -2.0135,6.33331 -0.4519,12.64056 -0.082,19.00476 1.2188,20.98731 1.3107,42.06812 3.2853,62.97607 2.2655,23.98761 2.2391,48.12476 5.597,72.04725 1.4308,10.19311 1.2639,20.67407 1.8388,30.99206 2.3185,41.61444 6.7783,83.27014 4.0687,124.96082 -1.6708,25.70868 -3.8937,51.42328 -7.3203,77.07074 -4.9282,36.8876 -11.2106,73.5229 -18.7592,109.871 -5.4182,26.0901 -11.5042,52.1397 -17.0818,78.1942 -6.092,28.4582 -11.8707,57.0834 -17.0029,85.8014 -4.0636,22.739 -12.3595,44.7073 -18.49999,67.0935 -5.82812,21.2478 -10.27838,42.758 -8.99511,64.9854 0.6676,11.563 3.62957,20.0736 16.7606,25.4686 40.4632,16.6242 81.976,30.1917 123.3169,44.1624 21.4177,7.2379 44.2312,9.8312 66.8413,12.6383 19.758,2.4529 39.4665,5.7326 59.1164,9.2712 11.7393,2.1139 23.8859,3.4431 35.9193,4.4309 21.6574,1.7777 43.3176,3.5677 65.0006,4.982 29.6538,1.9339 59.37,2.1069 88.9752,-0.2254 10.3204,-0.813 20.7357,-1.3436 31.061,-2.2992 49.3578,-4.5676 97.2863,-14.7983 143.9888,-31.3463 27.5822,-9.7731 53.1409,-23.6837 78.9525,-37.1168 13.2481,-6.8947 17.2446,-19.0626 18.0453,-32.9614 1.0009,-17.372 -1.7175,-34.5895 -6.3876,-50.898 -12.5775,-43.922 -23.1581,-88.1754 -32.1291,-133.0054 -8.4988,-42.4708 -18.2353,-84.7642 -27.0994,-127.1838 -5.2292,-25.0245 -8.7638,-50.5292 -12.8159,-75.84936 -8.4511,-52.80835 -11.118,-105.83166 -9.3091,-159.05523 1.0541,-31.01331 3.9052,-62.00092 6.0094,-92.98975 2.0144,-29.66632 3.782,-59.36005 6.0923,-88.98981 1.6136,-20.69629 0.5754,-41.4137 2.6134,-62.03015"
   id="path2" />






























































</svg>
