<?xml version="1.0" encoding="UTF-8" standalone="no"?>
<svg
   version="1.1"
   id="Layer_1"
   x="0px"
   y="0px"
   width="2101.5"
   viewBox="0 0 2101.5 1935"
   enable-background="new 0 0 2732 2048"
   xml:space="preserve"
   sodipodi:docname="file(6).svg"
   height="1935"
   xmlns:inkscape="http://www.inkscape.org/namespaces/inkscape"
   xmlns:sodipodi="http://sodipodi.sourceforge.net/DTD/sodipodi-0.dtd"
   xmlns="http://www.w3.org/2000/svg"
   xmlns:svg="http://www.w3.org/2000/svg"><defs
   id="defs62" /><sodipodi:namedview
   id="namedview62"
   pagecolor="#505050"
   bordercolor="#ffffff"
   borderopacity="1"
   inkscape:showpageshadow="0"
   inkscape:pageopacity="0"
   inkscape:pagecheckerboard="1"
   inkscape:deskcolor="#d1d1d1" />




<path
   fill="none"
   opacity="1"
   stroke="#000000"
   stroke-linecap="round"
   stroke-linejoin="round"
   stroke-width="3"
   d="m 1342.5,500.5 c -44.8823,-22.38007 -90.2333,-43.52231 -139.9296,-53.06894 -2.7069,2.6312 -2.1845,5.94531 -2.0424,9.06766 2.0775,45.68384 -14.7787,85.49927 -41.4043,120.71679 -27.5762,36.47504 -62.6739,65.01453 -103.4251,86.65851 -10.953,5.81751 -18.7537,4.28559 -28.2579,-1.27258 -30.4408,-17.80157 -58.9031,-38.13898 -82.8855,-64.15228 -26.5701,-28.82013 -46.4434,-61.79572 -55.6873,-100.03809 -3.978,-16.45764 -5.7147,-33.71365 -4.1329,-52.79285 -53.098,8.51731 -99.2903,30.857 -145.235,53.88178"
   id="path5" />

























































</svg>
