<?xml version="1.0" encoding="UTF-8" standalone="no"?>
<svg
   version="1.1"
   id="Layer_1"
   x="0px"
   y="0px"
   width="2101.5"
   viewBox="0 0 2101.5 1935"
   enable-background="new 0 0 2732 2048"
   xml:space="preserve"
   sodipodi:docname="file(7).svg"
   height="1935"
   xmlns:inkscape="http://www.inkscape.org/namespaces/inkscape"
   xmlns:sodipodi="http://sodipodi.sourceforge.net/DTD/sodipodi-0.dtd"
   xmlns="http://www.w3.org/2000/svg"
   xmlns:svg="http://www.w3.org/2000/svg"><defs
   id="defs63" /><sodipodi:namedview
   id="namedview63"
   pagecolor="#505050"
   bordercolor="#ffffff"
   borderopacity="1"
   inkscape:showpageshadow="0"
   inkscape:pageopacity="0"
   inkscape:pagecheckerboard="1"
   inkscape:deskcolor="#d1d1d1" />




<path
   fill="none"
   opacity="1"
   stroke="#000000"
   stroke-linecap="round"
   stroke-linejoin="round"
   stroke-width="3"
   d="m 1342.5,500.5 c -45.4758,-22.64337 -91.3875,-44.11908 -142.3297,-53.47513 -17.3527,58.39231 -57.2229,97.88474 -106.6537,129.50107 -15.8755,10.15411 -32.5721,18.8338 -48.9929,28.01648 -4.158,2.32507 -7.9696,2.4776 -12.0324,-0.0283 -29,-17.88788 -58.7773,-34.85681 -83.8419,-58.17468 C 920.225,519.89593 899.4425,488.159 888.5336,450.49027 888.2665,449.56763 888.5,448.5 888.5,447.5"
   id="path5" />



<path
   fill="none"
   opacity="1"
   stroke="#000000"
   stroke-linecap="round"
   stroke-linejoin="round"
   stroke-width="3"
   d="m 883.5,446.5 c -21.2808,1.7211 -41.1436,8.68707 -61.0365,15.8992 -28.5787,10.36111 -55.932,23.34274 -82.9635,37.1008"
   id="path9" />






















































</svg>
