<?xml version="1.0" encoding="UTF-8" standalone="no"?>
<svg
   version="1.1"
   id="Layer_1"
   x="0px"
   y="0px"
   width="2067"
   viewBox="0 0 2067 1903"
   enable-background="new 0 0 2732 2048"
   xml:space="preserve"
   sodipodi:docname="file(17).svg"
   height="1903"
   xmlns:inkscape="http://www.inkscape.org/namespaces/inkscape"
   xmlns:sodipodi="http://sodipodi.sourceforge.net/DTD/sodipodi-0.dtd"
   xmlns="http://www.w3.org/2000/svg"
   xmlns:svg="http://www.w3.org/2000/svg"><defs
   id="defs67" /><sodipodi:namedview
   id="namedview67"
   pagecolor="#505050"
   bordercolor="#ffffff"
   borderopacity="1"
   inkscape:showpageshadow="0"
   inkscape:pageopacity="0"
   inkscape:pagecheckerboard="1"
   inkscape:deskcolor="#d1d1d1" />
<path
   fill="none"
   opacity="1"
   stroke="#000000"
   stroke-linecap="round"
   stroke-linejoin="round"
   stroke-width="3"
   d="m 728.5,493.5 c 1.8756,33.00757 2.5176,66.07733 5.8177,99.01825 1.0618,10.59814 1.4211,21.35156 1.8852,31.99469 1.5281,35.03766 4.52,69.98474 6.7438,104.95868 2.2972,36.12775 2.1474,72.11316 -0.7754,108.00159 -2.3457,28.80304 -6.6751,57.46649 -11.2559,86.09326 -5.358,33.48443 -12.4419,66.60663 -18.7728,99.86553 -4.7119,24.754 -10.3662,49.3939 -15.8518,74.0214 -5.6314,25.2822 -9.4951,50.9323 -15.8994,76.0189 -5.82,22.7976 -13.0151,45.2462 -18.7522,68.0627 -4.9323,19.6151 -8.0353,39.6039 -5.1004,59.9594 1.2881,8.9343 5.2066,14.5417 14.8081,18.3877 35.6746,14.2901 71.76,27.3562 108.1646,39.5837 29.8802,10.0362 60.5985,15.8275 91.9598,19.2934 24.4766,2.705 48.5918,8.6702 73.0672,11.3957 14.9287,1.6626 29.9215,3.3834 44.9565,4.4175 32.3032,2.2214 64.6168,5.1831 96.9972,3.7521 30.7456,-1.3587 61.436,-3.3117 92.0454,-7.5531 59.142,-8.1955 115.5804,-24.5688 168.9152,-51.3653 11.3237,-5.6892 22.2446,-12.2578 32.9932,-18.9923 11.4362,-7.1651 11.2762,-19.7937 11.7593,-30.9266 0.856,-19.7229 -3.4869,-39.0913 -8.8591,-57.9434 -10.2699,-36.0384 -20.067,-72.1262 -27.0161,-109.0118 -6.3172,-33.5315 -14.2792,-66.7609 -21.3196,-100.1397 -5.4379,-25.7811 -10.3783,-51.7881 -14.8805,-77.82833 -4.0903,-23.65815 -8.5977,-47.31684 -11.2963,-71.10181 -4.5909,-40.46131 -8.1451,-81.17627 -6.1097,-121.95099 1.5481,-31.01264 3.8872,-62.00586 5.9713,-92.99805 2.0623,-30.66437 4.4017,-61.2984 6.0789,-91.99817 1.3294,-24.33325 3.8138,-48.60376 3.7258,-73.01495"
   id="path1" />




<path
   fill="none"
   opacity="1"
   stroke="#000000"
   stroke-linecap="round"
   stroke-linejoin="round"
   stroke-width="3"
   d="m 779.5,811.5 c 0.7821,9.02423 3.1111,17.85425 3.04,27.00031 -0.1372,17.66565 0.4421,35.3493 -0.1555,52.99578 -0.8518,25.16059 -4.4507,50.06647 -7.4486,75.05621 -2.6399,22.0059 -7.1949,43.7917 -8.2019,65.9583 -0.1549,3.4103 -3.1954,5.6276 -2.234,8.9894"
   id="path6" />
<path
   fill="none"
   opacity="1"
   stroke="#000000"
   stroke-linecap="round"
   stroke-linejoin="round"
   stroke-width="3"
   d="m 1185.5,825.5 c -2.7131,22.96551 -4.0515,45.78394 -1.4891,69.05383 1.6068,14.59143 2.9489,29.31586 4.6659,43.92542 1.8911,16.09115 5.9248,31.93925 7.632,48.04105 2.2172,20.9105 5.6619,41.8017 4.1912,62.9797"
   id="path7" />
<path
   fill="none"
   opacity="1"
   stroke="#000000"
   stroke-linecap="round"
   stroke-linejoin="round"
   stroke-width="3"
   d="m 853.4999,817.5 c 0.6667,11.66669 0.9319,23.37372 2.1011,34.98981 1.4852,14.75946 -0.7664,29.41394 -1.649,43.97699 -0.8049,13.28143 -2.9374,26.76172 -5.3163,40.05749 -2.9039,16.23121 -4.7348,32.65231 -7.1535,48.97301 -2.7526,18.5744 -3.9663,37.278 -4.9822,56.0027"
   id="path8" />
<path
   fill="none"
   opacity="1"
   stroke="#000000"
   stroke-linecap="round"
   stroke-linejoin="round"
   stroke-width="3"
   d="m 1243.5,813.5 c 2.025,14.62592 3.2086,29.36114 4.7087,44.02978 2.0572,20.1175 5.5251,40.00348 8.5651,59.92847 3.4857,22.8468 8.7416,45.44685 13.8324,68.01785 3.6982,16.3966 6.5549,33.0184 11.8938,49.0239"
   id="path9" />


























































</svg>
