<?xml version="1.0" encoding="UTF-8" standalone="no"?>
<svg
   version="1.1"
   id="Layer_1"
   x="0px"
   y="0px"
   width="2065"
   viewBox="0 0 2065 1903"
   enable-background="new 0 0 2732 2048"
   xml:space="preserve"
   sodipodi:docname="file(12).svg"
   height="1903"
   xmlns:inkscape="http://www.inkscape.org/namespaces/inkscape"
   xmlns:sodipodi="http://sodipodi.sourceforge.net/DTD/sodipodi-0.dtd"
   xmlns="http://www.w3.org/2000/svg"
   xmlns:svg="http://www.w3.org/2000/svg"><defs
   id="defs66" /><sodipodi:namedview
   id="namedview66"
   pagecolor="#505050"
   bordercolor="#ffffff"
   borderopacity="1"
   inkscape:showpageshadow="0"
   inkscape:pageopacity="0"
   inkscape:pagecheckerboard="1"
   inkscape:deskcolor="#d1d1d1" />

<path
   fill="none"
   opacity="1"
   stroke="#000000"
   stroke-linecap="round"
   stroke-linejoin="round"
   stroke-width="3"
   d="m 727.5,493.5 c 1.4211,2.17792 0.9735,4.63464 0.9869,7.00006 0.2063,36.10059 3.6059,72.02026 5.693,108.01849 1.4486,24.98615 2.8739,50.01807 4.6967,74.95392 2.5093,34.32935 4.9896,68.63831 4.399,103.02369 -0.4069,23.69311 -1.5296,47.38195 -4.3105,71.05847 -2.0729,17.64837 -4.0679,35.35241 -6.6528,52.91772 -4.4921,30.526 -10.2397,60.85995 -16.7743,91.03585 -5.1885,23.9592 -10.0379,47.9918 -15.0379,71.9918 -5,24 -10.3598,47.932 -14.9147,72.0161 -6.6159,34.9827 -18.9949,68.4613 -26.6357,103.0831 -4.5148,20.4573 -8.727,41.8123 -0.6736,62.986 1.3776,3.6216 2.5794,5.5835 6.1862,7.0101 36.2992,14.3578 72.794,28.0789 109.9604,40.1426 28.8371,9.3602 57.8893,16.4998 88.0513,19.9866 25.1267,2.9047 49.9257,8.7013 75.0638,11.426 14.9374,1.619 30.0125,3.0593 44.9154,4.7595 41.987,4.7901 84.0326,3.9267 126.0419,3.2774 24.7551,-0.3825 49.4093,-3.9169 74.0564,-7.3133 38.8091,-5.3477 76.2217,-15.1965 112.9618,-28.3367 28.125,-10.0589 54.4158,-23.6935 80.1296,-38.7939 9.5663,-5.6179 13.8769,-13.7428 14.5457,-23.2654 1.0521,-14.9764 0.7241,-30.0388 -2.552,-45.008 -6.8752,-31.4146 -17.8408,-61.7616 -24.7039,-93.0649 -5.8856,-26.8456 -10.4991,-54.0191 -16.3767,-80.9174 -7.5639,-34.6163 -15.4373,-69.1903 -21.8148,-104.032 -4.5544,-24.8826 -8.7894,-49.85753 -12.6312,-74.89592 -5.3038,-34.56763 -9.7733,-69.29285 -10.043,-104.06428 -0.2735,-35.28381 -0.6178,-70.77471 4.116,-106.03814 1.4944,-11.13147 1.6847,-22.6413 2.1221,-33.96497 0.9536,-24.69696 2.8704,-49.35394 4.6208,-73.96222 2.1581,-30.33514 3.053,-60.68896 4.5741,-91.03027"
   id="path2" />
















<path
   fill="none"
   opacity="1"
   stroke="#000000"
   stroke-linecap="round"
   stroke-linejoin="round"
   stroke-width="3"
   d="m 745.5,788.5 c 20.3014,5.77435 41.0619,6.7998 62.0001,6.00391 2.6981,-0.10254 5.4671,0.40026 7.9999,-1.00391"
   id="path19" />
<path
   fill="none"
   opacity="1"
   stroke="#000000"
   stroke-linecap="round"
   stroke-linejoin="round"
   stroke-width="3"
   d="m 1300.5,797.5 c -22.5923,7.29321 -45.912,4.54822 -69,5"
   id="path20" />














































</svg>
